<?xml version="1.0" standalone="no"?>
<!DOCTYPE svg PUBLIC "-//W3C//DTD SVG 1.1//EN" "http://www.w3.org/Graphics/SVG/1.1/DTD/svg11.dtd" >
<svg>
<metadata>
Created by FontForge 20090622 at Tue Jul 19 09:48:03 2016
 By deploy user
Copyright &#194;&#169; 2014 Dukom Design (www.dukom.org), with Reserved Font Name &#226;&#128;&#156;Constantine&#226;&#128;&#157;
</metadata>
<defs>
<font id="Constantine" horiz-adv-x="1181" >
  <font-face 
    font-family="Constantine"
    font-weight="400"
    font-stretch="normal"
    units-per-em="2048"
    panose-1="0 0 5 0 0 0 0 0 0 0"
    ascent="1638"
    descent="-410"
    x-height="1229"
    cap-height="1432"
    bbox="-39 -489 2681 1849"
    underline-thickness="102"
    underline-position="-102"
    unicode-range="U+000D-U+25FC"
  />
<missing-glyph horiz-adv-x="748" 
d="M68 0v1365h544v-1365h-544zM136 68h408v1229h-408v-1229z" />
    <glyph glyph-name=".notdef" horiz-adv-x="748" 
d="M68 0v1365h544v-1365h-544zM136 68h408v1229h-408v-1229z" />
    <glyph glyph-name="glyph1" horiz-adv-x="0" 
 />
    <glyph glyph-name="uni000D" unicode="&#xd;" horiz-adv-x="512" 
 />
    <glyph glyph-name="glyph3" horiz-adv-x="0" 
 />
    <glyph glyph-name="glyph3" horiz-adv-x="0" 
 />
    <glyph glyph-name="space" unicode=" " horiz-adv-x="512" 
 />
    <glyph glyph-name="exclam" unicode="!" horiz-adv-x="471" 
d="M143 84q0 39 27 65.5t66 26.5t65.5 -26.5t26.5 -65.5t-26.5 -65.5t-65.5 -26.5t-66 26.5t-27 65.5zM158 1438h153l-24 -613l-43 -477h-21l-41 477z" />
    <glyph glyph-name="quotedbl" unicode="&#x22;" horiz-adv-x="645" 
d="M102 1034q14 68 22.5 118t12.5 94t3 88t-5 100l144 28q2 -41 -4.5 -103.5t-25 -128t-49 -122.5t-79.5 -84zM369 1034q14 68 22 118t12.5 94t3.5 88t-6 100l144 28q2 -41 -4 -103.5t-24.5 -128t-49.5 -122.5t-80 -84z" />
    <glyph glyph-name="numbersign" unicode="#" horiz-adv-x="1097" 
d="M35 434v92h229l72 408h-211v92h229l72 408h98l-71 -408h301l71 408h99l-72 -408h211v-92h-229l-35 -203.5l-37 -204.5h211v-92h-230l-75 -434h-99l78 434h-303l-76 -434h-98l76 434h-211zM362 526h302l71 408h-301z" />
    <glyph glyph-name="dollar" unicode="$" horiz-adv-x="960" 
d="M104 172q0 49 8.5 109.5t26.5 113.5h47q-2 -20 -2 -34.5v-24.5q0 -109 51.5 -177.5t141.5 -86.5l49 618l-86 81l-86 79q-63 59 -88 129t-25 133q0 74 24.5 137.5t70 111.5t109 76.5t138.5 30.5l13 150l96 -4l-12 -150q29 -4 56.5 -7t49.5 -9h92v-281h-53q0 82 -41 133.5
t-113 65.5l-41 -537l228 -206q59 -59 81.5 -125t22.5 -131q0 -184 -104.5 -287t-294.5 -109l-12 -178l-95 10l15 177q-78 10 -145.5 35.5t-112.5 72.5q-8 33 -9 84zM285 1165q0 -43 17 -90t58 -88l80 -74l37 461q-41 -6 -75.5 -24.5t-61.5 -47t-41 -63.5t-14 -74zM469 68
q100 10 171 76.5t71 170.5q0 51 -16.5 96.5t-55.5 82.5l-127 116z" />
    <glyph glyph-name="percent" unicode="%" horiz-adv-x="1400" 
d="M82 995q0 41 10 99q29 170 125 267t227 101q39 0 76 -10q35 -10 63.5 -23.5t53.5 -29.5l62.5 -31.5t68.5 -19.5h14q57 0 112.5 25.5t98.5 49.5q27 16 58 31l63 -29l-760 -1452l-84 35l697 1321q-39 -20 -84 -36.5t-101 -16.5h-22q-27 4 -51.5 10t-46.5 17q16 -53 16 -115
q0 -23 -2 -48.5t-6 -52.5v3q-14 -86 -47 -155t-79 -116t-103.5 -72.5t-121.5 -25.5q-111 0 -174 71.5t-63 202.5zM217 971q0 -84 27.5 -129t79.5 -45q72 0 126.5 79t79.5 218q6 35 8.5 63.5t2.5 54.5q0 84 -27 129t-80 45q-72 0 -126 -78.5t-79 -220.5q-12 -66 -12 -116z
M711 244q0 43 10 100q14 84 48 151.5t80 115.5t103.5 75t118.5 27q111 0 173.5 -73t62.5 -202q0 -23 -2 -48t-7 -52q-33 -168 -129 -268.5t-223 -100.5q-111 0 -173 73t-62 202zM846 219q0 -84 27.5 -129t78.5 -45q72 0 127 79t80 220q4 33 7 61.5t3 55.5q0 84 -26.5 130
t-79.5 46q-72 0 -126 -80t-79 -219q-12 -66 -12 -119z" />
    <glyph glyph-name="ampersand" unicode="&#x26;" horiz-adv-x="1323" 
d="M59 461q0 139 71 232t177 147q-39 61 -58.5 127.5t-19.5 144.5q0 76 29 140.5t83 111.5t130 73.5t170 26.5q102 -2 198.5 -41t149.5 -104l-35 -232h-20q0 147 -80 232.5t-211 85.5q-59 0 -108.5 -21.5t-85 -60.5t-56 -92t-20.5 -117q0 -66 21.5 -124t62.5 -116.5
t101 -120t140 -130.5l154 -137l217 -189q41 92 41 192.5t-41 186.5q-20 41 -52 66.5t-79 25.5h-33v20h410v-20l-33 2q-45 0 -64.5 -25.5t-11.5 -66.5q25 -127 9.5 -241.5t-68.5 -207.5l84 -70.5t88 -64t92 -48t96 -23.5v-21h-79t-107 9t-125 35t-131 77q-68 -66 -162 -103.5
t-215 -37.5q-303 0 -466 124.5t-163 354.5zM209 463q0 -92 31.5 -169t92 -132.5t149.5 -86t204 -30.5l2 4q100 0 178 38t131 99l-221 185.5l-174 152.5l-149.5 140.5t-112.5 128.5q-72 -66 -101.5 -151t-29.5 -179z" />
    <glyph glyph-name="quotesingle" unicode="'" horiz-adv-x="348" 
d="M72 1034q14 68 22 118t12.5 94t3.5 88t-6 100l144 28q2 -41 -4 -103.5t-24.5 -128t-49.5 -122.5t-80 -84z" />
    <glyph glyph-name="parenleft" unicode="(" horiz-adv-x="692" 
d="M143 688v12q0 145 37 278.5t98.5 240t143.5 182.5t172 106l27 -43q-61 -29 -116.5 -98.5t-97.5 -168.5t-67 -222t-25 -258v-23q2 -147 29 -283.5t68 -250t94 -197.5t110 -123l-28 -45q-88 45 -168 135t-140.5 209t-97.5 259.5t-39 289.5z" />
    <glyph glyph-name="parenright" unicode=")" horiz-adv-x="692" 
d="M90 1464l31 41q90 -31 172 -106.5t143.5 -182t97 -239.5t35.5 -279v-12q-2 -150 -38.5 -290t-97 -259t-140.5 -208t-166 -134l-33 43q57 39 110.5 123t95.5 197.5t67.5 250t27.5 283.5q2 6 2 23q0 135 -24.5 258t-67.5 222t-98 169t-117 100z" />
    <glyph glyph-name="asterisk" unicode="*" horiz-adv-x="790" 
d="M76 1352l61 69l191 -90l20 -16l-8 22l-27 211l84 37l84 -37l-26 -211l-9 -22l19 16l192 90l62 -67l-6 -92l-211 -43l-29 2l23 -17l147 -155l-47 -78l-90 -21l-103 185l-6 24l-6 -24l-102 -187l-90 21l-47 78l145 157l25 17l-27 -2l-211 41z" />
    <glyph glyph-name="plus" unicode="+" horiz-adv-x="985" 
d="M80 571v125h348v348h125v-348h348v-125h-348v-348h-125v348h-348z" />
    <glyph glyph-name="comma" unicode="," horiz-adv-x="378" 
d="M94 -168q45 14 65.5 39t25.5 51.5t-4 51t-21 40.5q-20 23 -41 50.5t-4 66.5q8 20 29.5 31.5t44 10.5t45 -15.5t34.5 -44.5q25 -57 19 -110.5t-33 -93.5t-68 -64.5t-90 -26.5z" />
    <glyph glyph-name="hyphen" unicode="-" horiz-adv-x="778" 
d="M70 596l12 43h614l13 -45l-13 -45h-614z" />
    <glyph glyph-name="period" unicode="." horiz-adv-x="366" 
d="M92 84q0 39 26.5 65.5t65.5 26.5t65.5 -26.5t26.5 -65.5t-26.5 -65.5t-65.5 -26.5t-65.5 26.5t-26.5 65.5z" />
    <glyph glyph-name="slash" unicode="/" horiz-adv-x="831" 
d="M14 10l740 1450l82 -35l-740 -1454z" />
    <glyph glyph-name="zero" unicode="0" horiz-adv-x="1220" 
d="M123 717q0 174 33.5 312t96 234.5t152.5 147.5t205 51q113 0 204 -51t153.5 -147.5t96.5 -234.5t34 -312t-34 -312.5t-96.5 -234.5t-153.5 -147.5t-204 -51.5q-115 0 -205 51.5t-152.5 147.5t-96 234.5t-33.5 312.5zM297 717q0 -152 21.5 -272.5t62.5 -204.5t99.5 -129
t129.5 -45q74 0 131.5 45t98.5 129t62.5 204.5t21.5 272.5t-21.5 272.5t-62.5 204.5t-98.5 129t-131.5 45q-72 0 -130 -45t-99 -129t-62.5 -205t-21.5 -272z" />
    <glyph glyph-name="one" unicode="1" horiz-adv-x="704" 
d="M115 1298v33q39 6 77.5 13.5t75.5 21.5t71 37.5t64 58.5h48v-1323q0 -47 32.5 -78.5t79.5 -31.5h43v-31l-475 2v31h43q47 0 80 31.5t33 78.5v1057q0 100 -94 100h-78z" />
    <glyph glyph-name="two" unicode="2" horiz-adv-x="1132" 
d="M98 2v43q59 53 132 128t148 161t146.5 179t127 185.5t89 180.5t33.5 163q0 154 -70.5 240t-193.5 86h-8q-127 -4 -206 -72.5t-79 -199.5v-29l-53 8l-37 248q31 31 75 56.5t94 45t103.5 29.5t102.5 10q104 0 188 -28.5t143.5 -82t91 -130t31.5 -172.5q0 -117 -55 -235
t-138 -228.5t-178.5 -209.5l-176.5 -179l-50 -49h420q41 0 72 8t55.5 27.5t47 52t48.5 79.5h56l-109 -315h-850z" />
    <glyph glyph-name="three" unicode="3" horiz-adv-x="1030" 
d="M121 -63l10 51h33q113 0 214 34.5t177 96t121 146.5t45 188q0 80 -31 139t-86 98t-131 57.5t-166 18.5l10 55q63 0 129 20.5t118 59.5t85 96.5t33 130.5q0 10 -2 17q-2 41 -15.5 81t-41 70.5t-70.5 49t-102 18.5q-113 0 -175.5 -64.5t-62.5 -169.5q0 -4 1 -17t1 -17h-51
l-41 207q53 59 130 104t200 51h30q88 0 159 -24.5t120 -67.5t75.5 -100.5t26.5 -122.5q0 -55 -18.5 -107.5t-49 -96.5t-71.5 -77t-84 -51q53 -18 101.5 -50t84 -77t57 -104.5t21.5 -133.5q0 -106 -49 -201t-134 -167t-200.5 -114t-247.5 -42q-70 0 -153 15z" />
    <glyph glyph-name="four" unicode="4" horiz-adv-x="1193" 
d="M82 498v43l741 921h43v-821h70q51 0 68.5 9t33.5 32h52l-52 -184h-170v-353q0 -39 27 -65.5t66 -26.5h38v-53h-428v53h39q37 0 63.5 25.5t31.5 62.5v357h-623zM283 641h422v522z" />
    <glyph glyph-name="five" unicode="5" horiz-adv-x="1019" 
d="M111 -61l10 51h20q41 0 98.5 14t118 42t121 71t110.5 100t83 130t39 161q2 10 2 27q0 135 -90.5 208.5t-235.5 73.5q-49 0 -105.5 -9t-119.5 -32l-37 17l164 567l407 33q57 0 91 26.5t57 71.5h53l-74 -240l-471 -30l-82 -279q86 18 168 19q94 0 178 -26t145.5 -78
t97.5 -129t36 -181v-25q-4 -113 -43 -201t-99.5 -153.5t-136 -110.5t-152.5 -73.5t-149.5 -41t-126.5 -12.5q-16 0 -35.5 2t-41.5 7z" />
    <glyph glyph-name="six" unicode="6" horiz-adv-x="1146" 
d="M117 545v10q2 158 45 317.5t129 291.5t217 223.5t309 113.5l23 -43q-145 -47 -246.5 -136t-166.5 -208t-94.5 -261t-29.5 -296q0 -111 18.5 -202t54.5 -156.5t91 -102.5t129 -37q66 0 113 29t77.5 76t46 109.5t15.5 127.5q0 4 -1 6.5t-1 6.5q-4 141 -67.5 229t-184.5 88
q-59 0 -118.5 -28.5t-102.5 -86.5l-31 43q70 86 160 131.5t180 45.5q63 0 123.5 -25t108 -74t79 -122.5t39.5 -172.5q0 -8 1 -16t1 -16q0 -86 -29.5 -166t-87 -141.5t-138.5 -99.5t-183 -40h-8q-102 0 -188.5 40t-150 115t-98 182.5t-34.5 244.5z" />
    <glyph glyph-name="seven" unicode="7" horiz-adv-x="1028" 
d="M72 1188l57 242h854l-221 -590l-56 -156.5l-80 -229.5l-80 -247t-59 -207h-198l76 189.5l92 229.5l91 232.5l77 198.5l180 461h-559q-61 0 -96 -31t-58 -92h-20z" />
    <glyph glyph-name="eight" unicode="8" horiz-adv-x="1130" 
d="M117 362v19q6 127 74.5 217t199.5 156q-92 70 -147.5 157.5t-55.5 200.5q0 74 26 137.5t75 110.5t118.5 73.5t157.5 28.5h8q80 0 147.5 -23.5t117 -69.5t77 -111.5t27.5 -149.5q0 -117 -56.5 -205t-164.5 -139q53 -29 106.5 -63.5t95.5 -82t67.5 -108.5t25.5 -141
q0 -88 -32 -161t-90 -125t-141 -81t-186 -29q-100 0 -183 28t-142.5 79t-92 122.5t-32.5 159.5zM301 358q2 -133 72.5 -212.5t195.5 -79.5q68 0 118 23.5t82 61t47 87t15 100.5q0 66 -21.5 112t-56 79.5t-76.5 57l-85 46.5l-43 20q-20 10 -33.5 18.5t-32.5 18.5
q-76 -53 -127 -135t-55 -197zM373 1139q0 -96 51 -170t147 -129l35 -21q88 68 121 145.5t33 159.5q0 115 -51.5 180.5t-139.5 65.5q-94 0 -145 -68.5t-51 -162.5z" />
    <glyph glyph-name="nine" unicode="9" horiz-adv-x="1146" 
d="M123 979v18q0 106 32.5 190.5t91 145t138.5 93t174 34.5h8q106 0 192.5 -40t148 -115.5t94 -186t32.5 -252.5q0 -152 -41 -312.5t-127 -294.5t-218 -226t-312 -109l-25 43q143 39 245.5 128t167 209t95.5 261.5t31 288.5q0 236 -74 374t-219 138q-66 0 -114 -27.5
t-78.5 -74.5t-46 -109.5t-15.5 -132.5v-14q2 -68 19.5 -125.5t48 -99.5t76 -65.5t104.5 -23.5h6q57 2 116.5 30t104.5 87l33 -33q-68 -86 -157 -137t-179 -51q-68 0 -130 23.5t-110.5 71.5t-79 122t-32.5 172z" />
    <glyph glyph-name="colon" unicode=":" horiz-adv-x="348" 
d="M92 84q0 39 26.5 65.5t65.5 26.5t65.5 -26.5t26.5 -65.5t-26.5 -65.5t-65.5 -26.5t-65.5 26.5t-26.5 65.5zM92 868q0 39 26.5 66t65.5 27t65.5 -27t26.5 -66t-26.5 -65.5t-65.5 -26.5t-65.5 26.5t-26.5 65.5z" />
    <glyph glyph-name="semicolon" unicode=";" horiz-adv-x="1228" 
d="M92 926q0 39 26.5 65.5t65.5 26.5t65.5 -26.5t26.5 -65.5t-26.5 -65.5t-65.5 -26.5t-65.5 26.5t-26.5 65.5zM94 -168q45 14 65.5 39t25.5 51.5t-4 51t-21 40.5q-20 23 -41 50.5t-4 66.5q8 20 29.5 31.5t44 10.5t45 -15.5t34.5 -44.5q25 -57 19 -110.5t-33 -93.5
t-68 -64.5t-90 -26.5z" />
    <glyph glyph-name="less" unicode="&#x3c;" horiz-adv-x="985" 
d="M82 590v110l825 392v-134l-649 -313l649 -313v-135z" />
    <glyph glyph-name="equal" unicode="=" horiz-adv-x="985" 
d="M100 387v127h787v-127h-787zM100 711v127h787v-127h-787z" />
    <glyph glyph-name="greater" unicode="&#x3e;" horiz-adv-x="985" 
d="M84 197v135l647 313l-647 313v134l825 -392v-110z" />
    <glyph glyph-name="question" unicode="?" horiz-adv-x="845" 
d="M43 1282q47 86 125 134t176 48q186 0 292.5 -92t106.5 -256q0 -104 -49 -179t-112.5 -138.5l-122 -122t-78.5 -129.5q-14 -49 -16.5 -93t36.5 -94l-12 -10q-53 49 -72.5 98.5t-19.5 98.5t21.5 92t54.5 85t70.5 85t70.5 89t54.5 100.5t21.5 117.5q0 135 -65.5 210
t-182.5 75q-121 0 -192.5 -84t-67.5 -232h-21zM279 86q0 39 26.5 65.5t65.5 26.5t65.5 -26.5t26.5 -65.5t-26.5 -65.5t-65.5 -26.5t-65.5 26.5t-26.5 65.5z" />
    <glyph glyph-name="at" unicode="@" horiz-adv-x="2000" 
d="M104 510q0 66 15.5 142.5t50.5 156.5q59 135 152.5 247.5t212 192.5t260 124t299.5 44q35 0 72.5 -2t76.5 -8q143 -18 257 -77.5t194 -149.5t123 -207t43 -250v-46.5t-5 -45.5q-18 -170 -88.5 -329t-187.5 -281.5t-280.5 -196.5t-370.5 -74q-123 0 -258 28.5t-289 94.5
l-25 61q135 -53 254 -77.5t221 -24.5q174 0 323 61.5t260.5 169t183 254t96.5 318.5q6 55 6 110q0 117 -32 216.5t-91 173t-143 119.5t-191 61q-31 4 -61.5 6t-59.5 2q-260 0 -466.5 -139.5t-321.5 -395.5q-41 -92 -60.5 -177t-19.5 -158q0 -98 35 -157.5t100 -62.5
q45 0 91 30t91 76t86 101.5l78 106.5q10 16 20.5 29.5l20.5 27.5l254 348q27 31 49 62l36 53.5t26 44.5h41l84 -825q4 -41 23.5 -60.5t41.5 -19.5h29l-6 -47h-350l6 47h28q16 0 40 14.5t26 42.5l-12 199l-310 2q-53 -74 -101 -134.5t-95 -102.5t-96.5 -65.5t-104.5 -23.5
q-61 0 -112.5 27t-89.5 76t-58.5 117.5t-20.5 150.5zM840 545h243q-4 88 -8 159.5t-10 163.5z" />
    <glyph glyph-name="A" unicode="A" horiz-adv-x="1458" 
d="M-29 2v53h35q41 0 86 27t74 88h-2l454 1075l37 86q14 35 25.5 72t11.5 59h45l537 -1290v2q29 -63 74 -90t86 -27h34v-53h-485v53h35q27 0 47 16.5t20 49.5q0 18 -6 37l-125 329h-514l-131 -331v2q-6 -23 -6 -37q0 -33 21.5 -50.5t48.5 -17.5h35v-53h-437zM475 584h445
l-218 577z" />
    <glyph glyph-name="B" unicode="B" horiz-adv-x="1153" 
d="M82 -2v53h43q47 0 77.5 32t35.5 77v1112q0 45 -33 76.5t-80 31.5h-41v54l414 -2q215 -4 332.5 -99.5t117.5 -253.5q0 -113 -53 -187.5t-125 -111.5q141 -39 221 -143.5t80 -245.5q0 -180 -125 -286.5t-358 -106.5h-506zM401 102l181 -2q143 4 225 82t82 219
q0 106 -42 173t-107.5 102t-145.5 47q-74 10 -193 12v-633zM401 786q91 1 142 9q57 10 106 39.5t83 84t34 146.5q0 127 -69.5 196.5t-204.5 69.5h-91v-545z" />
    <glyph glyph-name="C" unicode="C" horiz-adv-x="1556" 
d="M109 719q0 166 53 303t149.5 235.5t233.5 151.5t307 53q152 0 274.5 -41t216.5 -102l43 -309h-49q-45 178 -176 268t-307 90q-129 0 -232.5 -46t-176 -131t-111.5 -205t-39 -265t41 -264t113.5 -204t173 -133t221.5 -54q102 0 195.5 28.5t167 93t123.5 171t69 259.5h47
l-27 -337q-41 -68 -96 -124.5t-127 -97.5t-160 -64.5t-194 -23.5q-160 0 -295 53.5t-232.5 151.5t-151.5 235.5t-54 307.5z" />
    <glyph glyph-name="D" unicode="D" horiz-adv-x="1652" 
d="M109 0v53h43q47 0 77.5 32t34.5 77v1120q0 41 -34.5 68.5t-77.5 27.5h-43v56h696q164 0 299 -51.5t232.5 -145.5t150.5 -226t53 -294t-53 -294t-150.5 -226.5t-232.5 -145.5t-299 -51h-696zM426 92h379q125 0 226.5 45t173 127t111.5 196.5t40 256.5q0 139 -40 253.5
t-111.5 196.5t-174 127t-225.5 45h-379v-1247z" />
    <glyph glyph-name="E" unicode="E" 
d="M96 -4v53h43q47 0 78 32t35 79v1118q-4 41 -36 69.5t-75 28.5h-43v54h602q31 0 69 4t74 10t66.5 14t46.5 17v-295h-53v53q0 41 -27.5 69.5t-68.5 32.5h-389v-583h319q35 2 58.5 25.5t23.5 58.5v45h53v-349h-53v48q0 33 -23.5 56t-54.5 26h-321v-568h268q76 0 130 19.5
t94 54.5t69 83t51 105h55l-131 -360h-860z" />
    <glyph glyph-name="F" unicode="F" horiz-adv-x="1107" 
d="M127 0v53h43q47 0 78 32t35 79v1118q0 41 -35 69.5t-78 28.5h-43v54h602q31 0 69 4t73.5 10t66.5 14t47 17v-275h-53v47q0 35 -23.5 57.5t-58.5 24.5h-406v-583h320q35 2 58.5 25.5t23.5 58.5v45h53v-349h-53v48q0 33 -23.5 56t-54.5 25h-322v-495q2 -47 34 -79t77 -32
h43v-53h-473z" />
    <glyph glyph-name="G" unicode="G" horiz-adv-x="1634" 
d="M90 723q0 168 54.5 305t151.5 235.5t232.5 151.5t298.5 53q168 0 288 -42t214 -101l43 -309h-47q-47 174 -175 265t-321 91q-123 0 -225 -47t-175 -132t-113 -205t-40 -267q0 -145 41 -264t115 -204t176.5 -134t222.5 -51q123 2 238 46t197 115v353q0 71 -82 71h-2h-31
v47h383v-47l-29 2q-82 0 -82 -71v-336q-37 -49 -91 -97.5t-128 -86t-167 -62.5t-208 -25q-164 0 -300 54.5t-233 152t-151.5 234.5t-54.5 305z" />
    <glyph glyph-name="H" unicode="H" horiz-adv-x="1665" 
d="M121 2v53h43q47 0 77.5 32t34.5 77v1110q-4 45 -34.5 77.5t-77.5 32.5h-43v54h473v-54h-43q-47 0 -78 -32.5t-35 -77.5v-516h785v516q-2 43 -34 74.5t-77 31.5h-43v54h471v-54h-41q-47 0 -77.5 -32.5t-35.5 -77.5v-1108q4 -45 35 -77t78 -32h41v-53l-471 2v53h43
q45 0 77 32t34 75v502h-785v-500q4 -45 35 -77t78 -32h43v-53h-473z" />
    <glyph glyph-name="I" unicode="I" horiz-adv-x="692" 
d="M111 0v53h43q47 0 77.5 32t34.5 77v1110q-4 45 -34.5 77.5t-77.5 32.5h-43v54h473v-54h-43q-47 0 -78 -32.5t-35 -77.5v-1110q4 -45 35 -77t78 -32h43v-53h-473z" />
    <glyph glyph-name="J" unicode="J" horiz-adv-x="663" 
d="M33 -365q49 18 92 56.5t73.5 89.5t49 111.5t18.5 121.5v1256q-2 45 -33.5 77.5t-76.5 32.5h-43v52h473v-52h-43q-45 0 -77 -32.5t-36 -77.5v-1262q0 -88 -30.5 -164.5t-84 -133t-126 -88.5t-156.5 -32v45z" />
    <glyph glyph-name="K" unicode="K" horiz-adv-x="1345" 
d="M68 0v53h43q47 0 77.5 32t34.5 77v1110q-4 45 -34.5 77.5t-77.5 32.5h-43v54h473v-54h-43q-47 0 -78 -32.5t-35 -77.5v-539l487 582q12 14 13 28q0 16 -12.5 27.5t-34.5 11.5h-37v52h456v-52h-24q-61 0 -114.5 -24.5t-88.5 -65.5l-487 -532l565 -633q37 -39 81 -55.5
t109 -18.5v-53h-100q-23 0 -60.5 3t-81.5 14.5t-90 35t-83 66.5l-498 571v-528q4 -45 35 -77t78 -32h43v-53h-473z" />
    <glyph glyph-name="L" unicode="L" horiz-adv-x="1150" 
d="M94 0v53h43q47 0 78 32t35 77v1108q-4 45 -35 76.5t-78 31.5h-43v56h473v-56h-43q-47 0 -77.5 -31.5t-34.5 -76.5v-1176h270q76 0 130 19.5t94 54.5t69 83t51 105h55l-127 -356h-860z" />
    <glyph glyph-name="M" unicode="M" horiz-adv-x="1906" 
d="M23 0v53h49q47 0 84 30t47 81l151 1298h43l547 -1183l537 1183h43l153 -1298q10 -51 47 -81t84 -30h50v-53h-469v51h49q25 0 43 19.5t18 44.5v4l-84 944l-395 -877q-16 -35 -29 -71q-12 -33 -23.5 -71t-15.5 -73h-43l-491 1063l-82 -915v-4q0 -25 18.5 -44.5t42.5 -19.5
h47v-51h-421z" />
    <glyph glyph-name="N" unicode="N" horiz-adv-x="1722" 
d="M31 -2v53h53q43 0 73.5 31t32.5 76v1040q0 51 -3 99.5t-7 84.5l-10 82h47l1067 -1138v950q-4 43 -33.5 73.5t-74.5 30.5h-54v54l445 -2v-54h-54q-41 0 -71.5 -30.5t-32.5 -71.5v-1036q0 -47 3 -95.5t7 -87.5q4 -45 11 -88h-46l-1067 1139v-952q4 -43 34 -74t73 -31h53
v-53h-446z" />
    <glyph glyph-name="O" unicode="O" horiz-adv-x="1652" 
d="M84 717q0 168 54.5 305t151.5 235.5t232 151.5t299 53t299 -53t232.5 -151.5t152 -235.5t54.5 -305t-54.5 -305.5t-152 -235.5t-232.5 -151.5t-299 -53.5t-299 53.5t-232 151.5t-151.5 235.5t-54.5 305.5zM272 717q0 -147 39 -267t112 -205t174 -132t224 -47
q125 0 226.5 47t173 132t111.5 204.5t40 267.5q0 147 -40 267t-111.5 205t-173 132t-226.5 47q-123 0 -224 -47t-174 -132t-112 -205t-39 -267z" />
    <glyph glyph-name="P" unicode="P" 
d="M106 0v53h44q47 0 77.5 32t34.5 77v1118q-4 41 -35.5 69.5t-74.5 28.5h-43v56h532q203 0 316.5 -107.5t113.5 -296.5q0 -90 -35 -163.5t-91 -116.5t-130 -71t-153 -28q-49 0 -89.5 13.5t-93.5 42.5v28q10 -4 23 -6q20 -6 59 -6q37 0 83 7t91 30.5t83 65.5t61 110v-2
q10 41 10 98v17q-4 133 -67.5 211.5t-182.5 78.5h-215v-1177q4 -45 34.5 -77t78.5 -32h43v-53h-474z" />
    <glyph glyph-name="Q" unicode="Q" horiz-adv-x="1699" 
d="M109 713q0 168 54 306t152.5 236.5t234.5 152.5t300 54t299 -54t232.5 -152.5t151.5 -236.5t54 -306q0 -135 -35.5 -252t-102.5 -209t-160 -157.5t-208 -98.5q119 -39 273.5 -100.5l339.5 -139.5q98 -41 208.5 -64.5t227.5 -23.5q147 0 287.5 45t236.5 90l27 -26
q-96 -92 -176 -143.5t-187.5 -87t-240.5 -35.5q-92 0 -194.5 21.5t-217.5 70.5q-59 25 -121.5 55.5l-130.5 65.5l-147.5 74.5t-150.5 70.5t-148.5 57.5t-141.5 36.5q-160 4 -292 60.5t-226 154.5t-146 233.5t-52 301.5zM291 713q0 -147 40 -268t113.5 -207t176 -133.5
t227.5 -47.5t226.5 47.5t174 133.5t112.5 206.5t40 268.5q0 147 -40 268t-112.5 207t-174 133t-226.5 47t-227.5 -47t-176 -133t-113.5 -207t-40 -268z" />
    <glyph glyph-name="R" unicode="R" horiz-adv-x="1386" 
d="M43 -2v53h43q47 0 78 32t35 77v1110q-4 45 -35 77.5t-78 32.5h-43v54l557 -7q190 0 299 -104t109 -289q0 -70 -23.5 -136.5t-64.5 -120.5t-97.5 -91t-122.5 -47q29 -23 56.5 -55.5l50.5 -61.5q47 -70 94 -133l82 -108.5t72 -85.5q59 -66 119.5 -106t156.5 -40v-53h-127
q-72 0 -128 17.5t-100 44t-76 58t-56 62.5q-4 6 -18.5 25.5t-34 48.5l-43 62.5l-48.5 68.5l-92 128l-64.5 90.5t-37 42t-43 29.5t-105.5 11v-524q4 -45 35 -77t78 -32h43v-53h-471zM358 735h115q18 0 41 2q37 0 80 7.5t85 28t77 58t55 101.5q10 37 10 96v19
q-4 129 -64.5 204.5t-164.5 81.5q-35 2 -69 3t-64 1q-29 0 -51.5 -1t-38.5 -1h-11v-600z" />
    <glyph glyph-name="S" unicode="S" horiz-adv-x="972" 
d="M106 172q0 49 9.5 108.5t25.5 112.5h49q-2 -20 -3 -33.5t-1 -23.5q0 -125 73 -197.5t183 -72.5h17q51 2 98 20t81 51t54.5 78t20.5 102q0 109 -74 172l-383 357q-61 59 -88 130t-27 132q0 66 24.5 129t71 113.5t115 81t158.5 30.5q41 0 87 -5t87 -15h96v-279h-53
q0 96 -61.5 150.5t-147.5 54.5q-51 0 -93 -17.5t-72.5 -47t-47 -67.5t-16.5 -81q0 -37 15 -84t63 -88l387 -367q63 -59 84.5 -125.5t21.5 -130.5q0 -86 -27.5 -158.5t-77.5 -123.5t-123 -80t-163 -29q-39 0 -87 6.5t-97 20.5t-94.5 36.5t-75.5 55.5q-4 18 -6.5 40t-2.5 44z
" />
    <glyph glyph-name="T" unicode="T" horiz-adv-x="1286" 
d="M45 1186v295q18 -8 49 -16.5t67 -14.5t73.5 -10t68.5 -4h680q31 0 69 4t73.5 10t66.5 14.5t47 16.5v-295h-53v53q0 41 -28 69.5t-68 30.5h-365v-1179q4 -45 35 -77t78 -32h43v-53h-473v53h43q43 0 74.5 31t33.5 76v1181h-362q-41 -2 -69 -30.5t-28 -69.5v-53h-55z" />
    <glyph glyph-name="U" unicode="U" horiz-adv-x="1607" 
d="M104 1382v54h439v-54h-47q-35 0 -60.5 -22.5t-27.5 -56.5v-764q0 -106 29.5 -192.5t82.5 -148t128 -95t167 -33.5q96 0 176 31.5t136.5 90t87 139.5t30.5 181v788q-4 35 -28.5 57.5t-59.5 22.5h-49v54l399 2v-54h-49q-35 0 -59.5 -22.5t-28.5 -56.5v-791
q0 -121 -40 -221.5t-113.5 -171t-176 -109.5t-227.5 -39q-129 0 -233.5 39t-180 109.5t-116.5 169t-41 219.5v790q-2 35 -28 59.5t-60 24.5h-50z" />
    <glyph glyph-name="V" unicode="V" horiz-adv-x="1515" 
d="M-25 1380v54h484v-54h-35q-25 0 -46.5 -16t-21.5 -47q0 -20 9 -39v2l403 -1012l422 1012v-2q6 20 6 39q0 31 -21.5 47t-46.5 16h-34v54h434v-54h-35q-41 0 -86 -26.5t-74 -87.5l-479 -1078l-37 -88q-14 -35 -24.5 -70.5t-10.5 -58.5h-47l-567 1293q-29 61 -74 88.5
t-86 27.5h-33z" />
    <glyph glyph-name="W" unicode="W" horiz-adv-x="2011" 
d="M-14 1380v54h477v-54h-35q-25 0 -46.5 -16t-21.5 -51q0 -14 7 -33l286 -924l361 1110h41l381 -1069l254 887q4 20 4 33q0 31 -18.5 47t-45.5 16h-35v54l430 2v-54h-34q-43 0 -91.5 -26.5t-68.5 -85.5l-334 -1059q0 -4 -6 -25.5t-14.5 -55.5t-14.5 -75t-8 -80h-47
l-395 1110l-287 -876q-10 -35 -18 -74q-8 -35 -14.5 -77t-8.5 -83h-47l-459 1295q-23 59 -70 84.5t-90 25.5h-32z" />
    <glyph glyph-name="X" unicode="X" horiz-adv-x="1355" 
d="M-16 0v53h45q57 0 108 34t82 77l187.5 279.5l187.5 281.5l-346 545q-29 43 -79 75.5t-110 32.5h-43v56h519v-56h-43q-25 0 -44.5 -20.5t-19.5 -46.5q0 -14 6 -29l262 -410l258 410v-2q8 14 9 33q0 27 -19.5 46t-42.5 19h-43v56h483v-56h-45q-59 0 -109 -32.5t-79 -75.5
l-344 -508l383 -600q29 -43 77 -76t107 -33h51v-53h-520v53h41q27 0 45.5 19.5t18.5 48.5q0 12 -6 29l-295 462l-293 -462q-8 -14 -8 -31q0 -27 19 -46.5t44 -19.5h43v-53h-487z" />
    <glyph glyph-name="Y" unicode="Y" horiz-adv-x="1353" 
d="M-25 1380v54h527v-54h-43q-27 0 -44.5 -20.5t-17.5 -46.5q0 -18 9 -33l284 -532l305 534l2 2q6 12 7 29q0 27 -19.5 47t-44.5 20h-43v54l473 -2v-54h-43q-59 0 -108.5 -32.5t-77.5 -75.5l-393 -637v-473q2 -45 33.5 -77t76.5 -32h43v-53h-471v53h43q45 0 76 32t35 77v477
l-377 633q-29 43 -78 76.5t-109 33.5h-45z" />
    <glyph glyph-name="Z" unicode="Z" horiz-adv-x="1333" 
d="M111 2v39l827 1302h-643q-41 -2 -70.5 -31.5t-29.5 -70.5v-53h-54v293q18 -8 49 -16.5t68 -14.5t75 -10t68 -4h555q29 0 64 3t67.5 9t59.5 12t39 13v-52l-842 -1329h606q106 0 170 72t92 178h54l-78 -340h-1077z" />
    <glyph glyph-name="bracketleft" unicode="[" horiz-adv-x="679" 
d="M174 -184v1663h373v-52l-209 -41v-1480l107.5 -20.5l107.5 -20.5v-49h-379z" />
    <glyph glyph-name="backslash" unicode="\" horiz-adv-x="831" 
d="M8 1425l84 35l739 -1452l-83 -39z" />
    <glyph glyph-name="bracketright" unicode="]" horiz-adv-x="679" 
d="M102 -135l215 41v1480l-208 41v52h372v-1663h-379v49z" />
    <glyph glyph-name="asciicircum" unicode="^" horiz-adv-x="1071" 
d="M72 373l403 387h123l401 -387h-129l-333 315l-336 -315h-129z" />
    <glyph glyph-name="underscore" unicode="_" horiz-adv-x="1024" 
d="M0 -123h1024v-61h-1024v61z" />
    <glyph glyph-name="grave" unicode="`" horiz-adv-x="899" 
d="M147 1702q16 33 39 60.5t47 49.5q129 -127 259 -270l-13 -12q-166 76 -332 172z" />
    <glyph glyph-name="a" unicode="a" horiz-adv-x="1357" 
d="M-20 0v53h32q35 0 74 24.5t68 82.5l413 882l37 82q14 35 25.5 72t13.5 61h45l496 -1097q27 -57 64.5 -82t72.5 -25h33v-53h-443v53h33q23 0 42.5 16.5t19.5 47.5q0 14 -7 33l-104 253h-481l-105 -247q-8 -18 -8 -39q0 -31 18.5 -47.5t40.5 -16.5h33v-53h-413zM453 498
h403l-199 483z" />
    <glyph glyph-name="b" unicode="b" horiz-adv-x="1128" 
d="M80 2v53h41q43 0 71.5 27t30.5 63v940q-2 39 -30.5 64t-71.5 25h-41v55h426q55 0 130 -10.5t141.5 -43t112.5 -96t46 -168.5q0 -82 -50 -144t-120 -97q127 -33 207 -119t80 -201q0 -102 -44 -168.5t-112 -106.5t-149.5 -56.5t-157.5 -16.5h-510zM385 94h205
q59 0 111.5 15.5t90 47t60 80t22.5 113.5q0 90 -41.5 145.5t-108.5 85t-149.5 40t-189.5 10.5v-537zM385 684q82 0 143 6q61 8 113.5 31.5t86.5 69t34 120.5q0 117 -67.5 170.5t-190.5 53.5h-119v-451z" />
    <glyph glyph-name="c" unicode="c" horiz-adv-x="1443" 
d="M100 614q0 150 47.5 270t135.5 202.5t213 126.5t280 44q127 0 255 -34.5t226 -94.5l50 -307h-52q-47 184 -174 263t-307 79q-115 0 -206 -38t-155.5 -108.5t-99 -173t-34.5 -229.5q0 -123 35.5 -223t101 -170.5t157 -110.5t203.5 -42h6q106 0 199.5 27.5t164.5 85
t115 145.5t52 211h51l-23 -297q-82 -125 -233.5 -197t-331.5 -72q-156 0 -280.5 45t-212.5 128t-135.5 202t-47.5 268z" />
    <glyph glyph-name="d" unicode="d" horiz-adv-x="1556" 
d="M117 -2v53h43q41 0 67.5 27.5t28.5 66.5v938q-2 39 -29.5 65t-66.5 26h-41v55l680 -2q147 -2 269 -46t208 -123t133 -191.5t47 -254.5q0 -143 -46 -256.5t-131 -193.5t-207 -122t-273 -42h-682zM420 92h379q223 0 351 137.5t128 380.5q0 121 -33 218.5t-95.5 165
t-151.5 103.5t-199 36h-379v-1041z" />
    <glyph glyph-name="e" unicode="e" horiz-adv-x="1118" 
d="M70 -10v53h45q41 0 67.5 26.5t28.5 65.5v946q0 37 -27.5 62.5t-68.5 25.5h-45v54h600q29 0 63.5 4t68.5 10t61.5 13t43.5 14v-269h-55v47q0 35 -23.5 59.5t-60.5 26.5h-395v-471h323q33 2 49.5 21.5t16.5 46.5v43h55v-313h-55v43q0 27 -15.5 45t-46.5 22h-325v-471h293
q68 2 115.5 19.5t82.5 46t60.5 69.5t46.5 88h57l-123 -327h-837z" />
    <glyph glyph-name="f" unicode="f" horiz-adv-x="1071" 
d="M94 -4v53h45q41 0 70 26.5t31 65.5v944q-2 37 -31 64t-70 27h-45v53h289l315 -8q31 0 66 4t68.5 9t63.5 12t46 14v-267h-57v47q0 35 -22.5 59.5t-59.5 26.5h-404v-471h328q33 2 49.5 21.5t16.5 46.5v43h55v-313h-55v43q0 27 -15.5 45t-46.5 22h-332v-422q2 -39 31 -65.5
t70 -26.5h45v-53h-451z" />
    <glyph glyph-name="g" unicode="g" horiz-adv-x="1519" 
d="M88 612q0 150 48 269.5t136 202.5t212 127t276 44q141 0 257 -30.5t222 -96.5l49 -307h-51q-43 176 -159.5 259t-321.5 83q-111 0 -202 -38t-155.5 -108.5t-99.5 -173t-35 -229.5t35 -228t99.5 -173t155.5 -109.5t202 -37.5q119 0 224 38.5t198 124.5q0 66 1 129.5
t3 128.5q0 29 -21.5 44.5t-56.5 15.5h-29v45h367v-45h-29q-72 0 -72 -62l5 -247q-37 -47 -93.5 -94.5t-130 -86.5t-165 -63.5t-197.5 -24.5q-152 0 -276 45t-212 128t-136 202t-48 268z" />
    <glyph glyph-name="h" unicode="h" horiz-adv-x="1527" 
d="M100 -2v53h39q41 0 70 26.5t31 65.5v938q-2 37 -31 63.5t-70 26.5h-39v56h441v-56h-41q-39 0 -66.5 -25.5t-30.5 -60.5v-432h701v430q-2 37 -31 64t-69 27h-39v55h440v-55h-39q-39 0 -66.5 -27t-31.5 -62v-940q2 -39 30.5 -65.5t69.5 -26.5h39v-53l-444 -2v53h38
q41 0 70 26.5t31 65.5v416h-701v-416q2 -39 31 -65.5t70 -26.5h39v-53h-441z" />
    <glyph glyph-name="i" unicode="i" horiz-adv-x="688" 
d="M90 0v53h43q47 0 81 26.5t38 63.5v940q-4 37 -38 64t-81 27h-43v55h485v-55h-43q-45 0 -78.5 -27t-37.5 -62v-942q2 -37 35.5 -63.5t80.5 -26.5h43v-53h-485z" />
    <glyph glyph-name="j" unicode="j" horiz-adv-x="632" 
d="M10 -315q47 14 90 46.5t76 77t52.5 95.5t19.5 104v1082q-4 35 -37 59.5t-76 24.5h-43v55h477v-55h-43q-47 0 -79.5 -27t-34.5 -66v-1073q0 -76 -33 -143.5t-88 -118.5t-128 -81t-153 -30v50z" />
    <glyph glyph-name="k" unicode="k" horiz-adv-x="1220" 
d="M41 -2v53h41q41 0 69.5 26.5t30.5 65.5v938q-2 37 -30.5 63.5t-69.5 26.5h-41v56h442v-56h-41q-41 0 -69.5 -25.5t-30.5 -60.5v-456l418 495q10 10 10 21q0 29 -39 29h-35v55h439v-55h-25q-53 0 -100 -17.5t-80 -48.5l-424 -453l481 -528q35 -37 72 -54.5t108 -19.5v-53
h-94q-23 0 -59.5 3t-78.5 14.5t-86 35t-81 66.5l-426 469v-445q2 -39 30.5 -65.5t69.5 -26.5h41v-53h-442z" />
    <glyph glyph-name="l" unicode="l" horiz-adv-x="1097" 
d="M68 1171v56h446v-56h-41q-41 0 -70.5 -26.5t-31.5 -63.5v-987h293q66 2 113.5 19.5t83.5 47t61.5 69.5t46.5 89l59 -8l-121 -315h-837v53h45q41 0 67.5 26.5t28.5 65.5v940q-2 37 -31.5 63.5t-70.5 26.5h-41z" />
    <glyph glyph-name="m" unicode="m" horiz-adv-x="1798" 
d="M10 0v53h45q47 0 81 25.5t40 73.5l156 1105h45l516 -993l498 993h45l159 -1112v2q8 -47 43 -71.5t78 -24.5h47v-53h-448v51h47q23 0 39 14.5t16 36.5v9l-50.5 382l-47.5 383l-350 -692q0 -2 -9.5 -22.5t-21.5 -51t-24.5 -67.5t-18.5 -72h-43l-461 887l-84 -745h2
q-2 -2 -2 -5q0 -23 17.5 -39t40.5 -16h47v-51h-402z" />
    <glyph glyph-name="n" unicode="n" horiz-adv-x="1595" 
d="M59 -2v53h52q37 0 64.5 25.5t29.5 62.5v852q0 49 -4 97.5t-8 85.5q-6 43 -13 83h49l1012 -952v787q-4 35 -30.5 59.5t-63.5 24.5h-51v53l411 -4v-54h-49q-39 0 -65.5 -24.5t-30.5 -59.5v-847q0 -47 3 -95.5t7 -87.5q4 -45 10 -88h-45l-1013 961v-791q4 -37 30.5 -62.5
t63.5 -25.5h51v-53h-410z" />
    <glyph glyph-name="o" unicode="o" horiz-adv-x="1527" 
d="M59 614q0 143 54.5 261t148.5 203t220.5 132t269.5 47t268 -47t219 -132t148.5 -202.5t54.5 -261.5q0 -143 -54.5 -260.5t-148.5 -202.5t-219 -132.5t-268 -47.5t-269.5 47.5t-220.5 132.5t-148.5 202.5t-54.5 260.5zM244 614q0 -123 39 -224t107.5 -173t162 -111.5
t199.5 -39.5t198 39.5t161 111.5t107.5 173.5t38.5 223.5q0 123 -38.5 224.5t-107.5 173t-161 111.5t-198 40t-199.5 -40t-162 -111.5t-107.5 -173t-39 -224.5z" />
    <glyph glyph-name="p" unicode="p" horiz-adv-x="1132" 
d="M82 1174v55l489 -2q104 -2 191.5 -27.5t150 -72t96 -112t33.5 -147.5q0 -88 -30.5 -157.5t-82.5 -111.5t-121 -67.5t-146 -25.5q-53 0 -110.5 18.5t-117.5 46.5v31q18 -4 39 -8q16 -4 37.5 -6t44.5 -2q37 0 79 7t83 28.5t76.5 61.5t58.5 103q6 20 9 49t3 54
q0 113 -78.5 178.5t-218.5 65.5h-176v-990q2 -39 30 -65.5t68 -26.5h46v-53h-449v53h45q41 0 67.5 26.5t28.5 65.5v942q-2 37 -30.5 63t-69.5 26h-45z" />
    <glyph glyph-name="q" unicode="q" horiz-adv-x="1568" 
d="M102 610q0 143 53.5 262t145.5 205t216 133t265 47t265 -47t217.5 -133t146.5 -204.5t53 -262.5q0 -115 -33.5 -213t-95 -177t-145.5 -136t-184 -88q104 -35 242 -86l298 -115q88 -35 188.5 -55.5t204.5 -20.5q129 0 252 38t228 87l22 -28q-106 -92 -178 -138.5t-169 -79
t-216 -32.5q-80 0 -169 18.5t-187 59.5q-55 23 -115.5 53.5l-126.5 62.5l-122.5 62t-127 58.5t-125 50t-114.5 32.5q-145 0 -270.5 48t-218.5 133t-146.5 204t-53.5 262zM285 610q0 -123 38.5 -225t105.5 -175t158 -113t195 -40t195.5 40t159 113t106.5 175t39 225
t-39 225.5t-106.5 175t-158.5 112.5t-196 40q-104 0 -195 -40t-158 -112.5t-105.5 -175t-38.5 -225.5z" />
    <glyph glyph-name="r" unicode="r" horiz-adv-x="1284" 
d="M39 2v53h45q41 0 67.5 25.5t28.5 62.5v944q-2 37 -28.5 62t-67.5 25h-43v55l514 -2q193 -4 307.5 -93.5t114.5 -246.5q0 -61 -20.5 -116.5t-58.5 -100.5t-89 -77t-113 -46q31 -25 64 -63t57 -72v2l55 -76l55.5 -70t61.5 -71q29 -33 55.5 -59.5t55 -46t62.5 -30t77 -10.5
v-53h-78q-86 0 -147.5 17.5t-106.5 44t-74.5 58.5l-54.5 60q-10 10 -40.5 56.5t-65.5 93.5l-90 127q-37 47 -84 86t-158 39v-435q2 -37 28.5 -63.5t67.5 -26.5h45v-53h-442zM340 633h121q23 0 54.5 1t72.5 4t77.5 18.5t67.5 47t51 91.5q14 39 15 90q0 12 -2 16
q-2 104 -67.5 163.5t-178.5 65.5q-41 2 -80 3h-131v-500z" />
    <glyph glyph-name="s" unicode="s" horiz-adv-x="946" 
d="M102 150q0 43 8.5 96t24.5 100h55q-2 -18 -3 -30.5t-1 -20.5q0 -109 70 -169t180 -60h15q117 4 183 57t66 145q0 41 -15 77t-52 67h2l-399 307q-59 51 -80 112.5t-23 116.5q0 63 26.5 120.5t74 98.5t111 65.5t136.5 24.5q68 0 116 -5t83 -13h80l6 -250h-57
q0 82 -51.5 128t-159.5 46q-47 0 -88 -13t-72 -36.5t-48.5 -54.5t-17.5 -68q0 -35 14.5 -71.5t57.5 -71.5l399 -311q49 -41 72 -104.5t25 -125.5q0 -70 -30 -131t-80 -107t-117.5 -73t-143.5 -27q-45 0 -96 6.5t-99.5 18.5t-91.5 31.5t-71 46.5q-4 16 -6.5 35.5t-2.5 42.5z
" />
    <glyph glyph-name="t" unicode="t" horiz-adv-x="1183" 
d="M27 1004v268q16 -6 44.5 -13.5t62.5 -13.5t69 -10t63 -4h647q29 0 64 4t68.5 10t62.5 13.5t45 13.5v-268h-55v47q0 35 -23.5 59.5t-60.5 26.5h-342v-994q2 -37 30.5 -63.5t69.5 -26.5h41v-53h-444v53h41q41 0 68.5 26.5t31.5 65.5v992h-344q-37 -2 -59.5 -27t-22.5 -59
v-47h-57z" />
    <glyph glyph-name="u" unicode="u" horiz-adv-x="1433" 
d="M57 1178v55h412v-55h-47q-31 0 -53.5 -20.5t-24.5 -49.5v-645q0 -186 93 -294t257 -108q182 0 284.5 100.5t102.5 276.5v670q-2 29 -24.5 48.5t-52.5 19.5h-48v53l379 4v-55h-47q-31 0 -53.5 -18.5t-24.5 -47.5v-672q0 -109 -35.5 -194.5t-102 -146t-162 -93.5
t-214.5 -33q-240 0 -377 123t-137 340v672q-4 29 -25.5 49.5t-54.5 20.5h-45z" />
    <glyph glyph-name="v" unicode="v" horiz-adv-x="1400" 
d="M12 1176v53h443v-53h-33q-23 0 -41.5 -16.5t-18.5 -49.5q0 -16 7 -35l-2 2l342 -831l348 827q8 16 8 37q0 31 -18.5 48.5t-40.5 17.5h-33v53h413v-53h-32q-35 0 -73 -26t-67 -81l-413 -883l-37 -84q-14 -35 -25.5 -71.5t-13.5 -59.5h-45l-498 1098q-29 55 -65.5 81
t-71.5 26h-33z" />
    <glyph glyph-name="w" unicode="w" horiz-adv-x="1841" 
d="M-12 1176v53h444v-53h-33q-20 0 -37.5 -13.5t-17.5 -44.5v-13t4 -15l250 -762l324 932h43l344 -877l209 692q4 12 6 22.5t2 20.5q0 31 -16.5 44.5t-34.5 13.5h-35v53l399 4v-53h-33q-53 0 -90 -31t-55 -78l-289 -858q0 -4 -7 -26.5t-14.5 -55.5t-14.5 -74t-9 -80h-49
l-358 918l-244 -684q0 -2 -6 -23.5l-14.5 -54.5t-14.5 -74t-8 -82h-47l-424 1102q-16 43 -52 70t-90 27h-32z" />
    <glyph glyph-name="x" unicode="x" horiz-adv-x="1282" 
d="M-20 6v53h43q53 0 99 28t75 65v-2l362 464l-330 473q-29 35 -76 63t-102 28h-43v53h502v-53h-41q-23 0 -41 -16.5t-18 -39.5q0 -14 6 -22l239 -342l230 340q6 8 6 22q0 23 -17.5 39.5t-39.5 16.5h-43v53h477v-53h-43q-55 0 -102.5 -28t-75.5 -67l-314 -436l350 -502
q29 -35 74 -62.5t100 -27.5l48 15v-60h-506v53h41q23 0 41 15.5t18 38.5q0 12 -6 22l-262 375l-277 -375q-8 -10 -8 -24q0 -23 19.5 -38.5t42.5 -15.5h41v-53h-469z" />
    <glyph glyph-name="y" unicode="y" horiz-adv-x="1310" 
d="M-14 1174v55h495v-55h-39q-27 0 -42 -15.5t-15 -38.5q0 -4 1 -9t1 -9l275 -488l292 488q4 12 4 20q0 23 -15 37.5t-42 14.5h-39v55h451v-55h-43q-53 0 -96.5 -29t-71.5 -66l-379 -573v-363q2 -37 30.5 -63.5t69.5 -26.5h39v-53h-442v53h39q41 0 68.5 26.5t31.5 63.5v363
l-366 573q-29 43 -71 69t-95 26h-41z" />
    <glyph glyph-name="z" unicode="z" horiz-adv-x="1245" 
d="M80 2v39l729 1098h-561q-37 -2 -59.5 -27t-22.5 -59v-47h-55v266q16 -6 44.5 -13.5t61.5 -13.5t67.5 -10t63.5 -4h459q31 0 68.5 3t71.5 8t62.5 11.5t41.5 12.5v-49l-742 -1123h516q66 2 114 19.5t83 46t60.5 69.5t45.5 88l58 7l-123 -322h-983z" />
    <glyph glyph-name="braceleft" unicode="{" horiz-adv-x="690" 
d="M86 680q29 0 64.5 2t46.5 18q4 12 4 31q0 23 -4 55.5t-9 67.5q-8 43 -13 93t-5 93v9q0 94 21.5 176t66.5 143.5t115.5 96t169.5 34.5l10 -45q-72 -18 -114 -54t-65.5 -88t-31.5 -119t-10 -144v-15q0 -23 1 -44t1 -44q2 -20 2 -40.5v-39.5q0 -74 -12.5 -132t-63.5 -87
q47 -29 61.5 -87t14.5 -130v-43t-2 -43q0 -23 -1 -44t-1 -44v-12q2 -78 10 -144.5t31.5 -119t65.5 -88t114 -54.5l-10 -45q-98 0 -169 35t-116 96.5t-66.5 143.5t-21.5 176v8q0 41 5 89t9 91l7.5 66.5t3.5 54.5q0 29 -5 37q-8 20 -40.5 27.5t-59.5 11.5z" />
    <glyph glyph-name="bar" unicode="|" horiz-adv-x="501" 
d="M205 -369v1803h92v-1803h-92z" />
    <glyph glyph-name="braceright" unicode="}" horiz-adv-x="690" 
d="M86 -160q70 18 113 54t66.5 88.5t31.5 119t8 144.5v12v44.5t-2 43.5q0 23 -1 43.5t-1 42.5q0 72 14.5 130.5t61.5 86.5q-49 29 -62.5 87.5t-13.5 129.5q0 20 1 40t1 42q2 23 2 44.5v43.5v15q0 78 -8 144.5t-31.5 118.5t-66.5 88t-113 54l6 45q98 0 169 -34.5t117 -96
t67.5 -143.5t21.5 -176v-9q0 -45 -6 -93l-12 -93q-4 -35 -9.5 -67.5t-5.5 -55.5q0 -18 4 -31q10 -16 46 -18t65 -2v-51q-29 -4 -60.5 -11.5t-42.5 -27.5q-4 -16 -4 -37q0 -23 4.5 -54.5t8.5 -66.5q4 -43 9 -90t5 -90v-8q0 -94 -21.5 -176t-66.5 -143.5t-115.5 -96.5
t-169.5 -35z" />
    <glyph glyph-name="asciitilde" unicode="~" horiz-adv-x="1009" 
d="M127 530q0 51 16.5 89t44 64t63.5 39t75 13q55 2 109 -29.5t106 -68.5q37 -25 70.5 -45.5t58.5 -22.5q31 0 56.5 19.5t25.5 58.5q0 16 -19 78h137q14 -55 15 -90q0 -49 -18.5 -86t-48.5 -61.5t-68.5 -36t-79.5 -11.5q-49 0 -102.5 30t-100.5 62q-35 25 -74 48.5t-67 25.5
h-4q-27 0 -45.5 -19.5t-18.5 -62.5q0 -10 3 -28.5t7 -46.5h-131q-4 29 -7 48t-3 33z" />
    <glyph glyph-name="uni00A0" unicode="&#xa0;" horiz-adv-x="512" 
 />
    <glyph glyph-name="cent" unicode="&#xa2;" horiz-adv-x="1232" 
d="M92 711q0 129 40 232.5t113.5 175t180 110.5t240.5 41l14 168l94 -2l-14 -170q86 -10 165 -38t144 -69l37 -270h-47q-33 135 -113 200.5t-192 79.5l-78 -925q86 2 161.5 26.5t133 73.5t92.5 123t41 176h49l-18 -258q-66 -111 -187 -171t-280 -64l-15 -170l-92 10l14 166
q-111 14 -199.5 58t-151 115.5t-97.5 168t-35 213.5zM274 711q0 -193 81 -311.5t231 -147.5l71 924q-186 -6 -284.5 -127t-98.5 -338z" />
    <glyph glyph-name="sterling" unicode="&#xa3;" 
d="M76 653l37 107h188q-2 16 -2 34.5v34.5q0 133 22.5 244t71.5 193t129 132t197 60q10 2 18 2h19q90 0 158.5 -38t111.5 -91l-61 -203h-52q6 45 7 68q0 92 -49.5 132t-118.5 40h-13.5t-13.5 -2q-78 -8 -126 -45t-75.5 -99.5t-38 -151.5t-10.5 -200v-52t2 -56h375l-35 -107
h-338q-2 -111 -17.5 -190.5t-39 -139t-54 -100.5t-61.5 -73q12 2 24.5 2h26.5q35 0 73 -4.5t79 -8.5q29 -4 58.5 -7t62.5 -7q14 -2 27.5 -2h27.5q53 0 107.5 10t104.5 37t95 70t78 108l49 -6l-100 -295q-84 -39 -169 -56.5t-159 -17.5q-18 0 -37.5 1t-36.5 4q-53 8 -97 19
l-83 21q-45 10 -83 19.5t-79 9.5q-25 0 -55 -6q-10 -2 -34.5 -15.5t-43.5 -31.5h-43v45q37 31 73 85t64.5 132t46 177.5t19.5 217.5h-227z" />
    <glyph glyph-name="yen" unicode="&#xa5;" horiz-adv-x="1353" 
d="M-35 1380v54h527v-54h-43q-27 0 -44.5 -20.5t-17.5 -46.5q0 -18 8 -33l285 -532l305 534l2 2q6 12 6 29q0 27 -19.5 47t-43.5 20h-43v54l473 -2v-54h-43q-59 0 -108.5 -32.5t-78.5 -75.5l-127 -205l-124 -205h239v-92h-297l-82 -135v-12h379v-93h-379v-368q2 -45 34 -77
t77 -32h43v-53h-471v53h43q45 0 75.5 32t34.5 77v368h-380v93h380v14l-79 133h-301v92h245l-243 410q-29 43 -78 76.5t-109 33.5h-45z" />
    <glyph glyph-name="dieresis" unicode="&#xa8;" horiz-adv-x="1228" 
d="M297 1511q0 35 23.5 58.5t58.5 23.5t58.5 -22.5t23.5 -57.5t-22.5 -57t-57.5 -22l-4 -4q-35 0 -57.5 23.5t-22.5 57.5zM678 1507q0 35 23.5 58.5t58.5 23.5t58.5 -22.5t23.5 -57.5t-22.5 -57t-57.5 -22l-4 -5q-35 0 -57.5 24t-22.5 58z" />
    <glyph glyph-name="copyright" unicode="&#xa9;" horiz-adv-x="1736" 
d="M121 717q0 154 58.5 290t159.5 237.5t237 159.5t290 58t290 -58t237.5 -159.5t160 -238t58.5 -289.5q0 -154 -58.5 -290t-160 -237.5t-237.5 -160t-290 -58.5t-290 58.5t-237 160t-159.5 237.5t-58.5 290zM227 715q0 -133 50.5 -249t137.5 -203t202.5 -137t248.5 -50
t250 50t204 137t137 203t50 249t-50 249.5t-137 202.5t-204 136.5t-250 50.5t-248.5 -50.5t-202.5 -136.5t-137.5 -202.5t-50.5 -249.5zM401 713q0 100 36 185t100.5 147.5t150.5 97.5t189 35q88 0 177 -25t154 -68l33 -227h-45q-27 111 -112 173.5t-207 62.5
q-66 0 -123.5 -29t-98.5 -79t-64.5 -118.5t-23.5 -150.5q0 -80 24.5 -147.5t65.5 -118t97.5 -80t122.5 -31.5q74 0 136 18.5t110 58.5t78 102.5t36 152.5l43 -19l-16 -211q-55 -92 -159 -143t-228 -51q-102 0 -188.5 35.5t-151 98t-100.5 147.5t-36 184z" />
    <glyph glyph-name="guillemotleft" unicode="&#xab;" horiz-adv-x="927" 
d="M82 598l358 406l17 -11l-242 -395l244 -403l-19 -11zM430 598l358 406l17 -11l-242 -395l244 -403l-19 -11z" />
    <glyph glyph-name="uni00AD" unicode="&#xad;" horiz-adv-x="778" 
d="M70 596l12 43h614l13 -45l-13 -45h-614z" />
    <glyph glyph-name="registered" unicode="&#xae;" horiz-adv-x="501" 
d="M20 1204q0 47 18.5 89t50.5 74t74 50.5t89 18.5t89 -18.5t73.5 -50.5t50 -74t18.5 -89t-18.5 -89t-50 -73.5t-73.5 -50t-89 -18.5t-89 18.5t-74 50t-50.5 73.5t-18.5 89zM61 1204q0 -39 15.5 -73.5t41 -60.5t60.5 -41t74 -15t73.5 15t60.5 41t41 60.5t15 73.5t-15 74
t-41 60.5t-60.5 41t-73.5 15.5t-74 -15.5t-60.5 -41t-41 -60.5t-15.5 -74zM139 1331v4h76h39q37 0 61.5 -17.5t24.5 -47.5q0 -27 -16.5 -45.5t-42.5 -22.5q14 -4 30.5 -27.5l28.5 -39.5l13 -19.5t30 -19.5v-4h-27q-27 0 -43 8t-27.5 21.5t-20.5 29.5l-17 31l-11.5 19
t-11.5 9v4h23q2 0 15 4.5t22 30.5q4 12 4 23q0 45 -49 45h-25v-201q0 -23 23 -22h6v-4h-103v4h6q20 0 21 22v195q0 20 -23 20h-6z" />
    <glyph glyph-name="acute" unicode="&#xb4;" horiz-adv-x="899" 
d="M414 1540l129 139.5t129 130.5q25 -25 47 -52t39 -58l-166 -89l-166 -83z" />
    <glyph glyph-name="cedilla" unicode="&#xb8;" horiz-adv-x="1228" 
d="M504 -367l2 21q31 0 64.5 6t60 21.5t44 41t15.5 62.5q0 33 -17.5 51.5t-42 26.5t-55 5t-57.5 -15l-10 20l98 129h58l-86 -100q27 8 63.5 11t69 -8t56.5 -40t26 -82q2 -49 -24 -84t-68 -55.5t-94 -23.5t-103 13z" />
    <glyph glyph-name="guillemotright" unicode="&#xbb;" horiz-adv-x="927" 
d="M123 195l244 403l-242 395l16 11l359 -406l-359 -414zM471 195l244 403l-242 395l16 11l359 -406l-359 -414z" />
    <glyph glyph-name="circumflex" unicode="&#x2c6;" horiz-adv-x="1228" 
d="M338 1509l219 244h21l233 -244l-12 -16l-234 135l-215 -135z" />
    <glyph glyph-name="ring" unicode="&#x2da;" horiz-adv-x="1228" 
d="M426 1585q0 68 54 111t136 43t136.5 -41t54.5 -113q0 -68 -54.5 -110.5t-136.5 -42.5t-136 43t-54 110zM516 1585q0 -57 28.5 -88t71.5 -31t72 31t29 88t-29 88t-72 31t-71.5 -31t-28.5 -88z" />
    <glyph glyph-name="tilde" unicode="&#x2dc;" horiz-adv-x="1228" 
d="M332 1440q10 82 45 128t84 46q35 0 67.5 -13.5t63.5 -31t59.5 -30.5t55.5 -13q86 0 112 69h25q-10 -76 -46 -118.5t-89 -42.5q-33 0 -67 14t-65.5 30.5l-60.5 31t-53 14.5q-78 0 -111 -84h-20z" />
    <glyph glyph-name="uni0400" unicode="&#x400;" 
d="M96 -4v53h43q47 0 78 32t35 79v1118q-4 41 -36 69.5t-75 28.5h-43v54h602q31 0 69 4t74 10t66.5 14t46.5 17v-295h-53v53q0 41 -27.5 69.5t-68.5 32.5h-389v-583h319q35 2 58.5 25.5t23.5 58.5v45h53v-349h-53v48q0 33 -23.5 56t-54.5 26h-321v-568h268q76 0 130 19.5
t94 54.5t69 83t51 105h55l-131 -360h-860zM358 1739q16 33 39 60.5t47 49.5q129 -127 258 -270l-12 -12q-166 76 -332 172z" />
    <glyph glyph-name="afii10023" unicode="&#x401;" 
d="M96 -4v53h43q47 0 78 32t35 79v1118q-4 41 -36 69.5t-75 28.5h-43v54h602q31 0 69 4t74 10t66.5 14t46.5 17v-295h-53v53q0 41 -27.5 69.5t-68.5 32.5h-389v-583h319q35 2 58.5 25.5t23.5 58.5v45h53v-349h-53v48q0 33 -23.5 56t-54.5 26h-321v-568h268q76 0 130 19.5
t94 54.5t69 83t51 105h55l-131 -360h-860zM291 1642q0 35 23.5 58.5t58.5 23.5t58.5 -22.5t23.5 -56.5q0 -35 -22.5 -57.5t-57.5 -22.5l-4 -4q-35 0 -57.5 23.5t-22.5 57.5zM672 1638q0 35 23.5 58.5t58.5 23.5t58.5 -22.5t23.5 -57.5t-22.5 -57t-57.5 -22l-4 -5
q-35 0 -57.5 24t-22.5 58z" />
    <glyph glyph-name="afii10051" unicode="&#x402;" horiz-adv-x="1519" 
d="M47 1212v269q16 -6 45 -13.5t62.5 -13.5t68.5 -10t64 -4h647q29 0 63.5 4t68.5 10t62.5 13.5t45.5 13.5v-269h-56v48q0 35 -23.5 59t-60.5 27h-342v-560h340q203 -18 316.5 -125.5t113.5 -295.5q-10 -236 -131 -408q-109 -154 -252 -230.5t-262 -84.5v30q49 18 168 102.5
t214 249t86 328.5t-72.5 243t-182.5 97h-338v-692h-303v53h41q41 0 68.5 26.5t31.5 65.5v1201h-344q-37 -2 -59.5 -27t-22.5 -59v-48h-57z" />
    <glyph glyph-name="afii10052" unicode="&#x403;" horiz-adv-x="1114" 
d="M68 0v55h43q47 0 77.5 32t34.5 77v1108q-4 45 -34.5 76.5t-77.5 31.5h-43v54h860l127 -357h-56q-23 57 -51 105.5t-68 83t-94.5 54t-130.5 19.5h-270v-1175q4 -45 35 -77t78 -32h43v-55h-473zM467 1577l129 139.5t129 130.5q25 -25 47.5 -52.5t38.5 -57.5l-166 -89
l-166 -83z" />
    <glyph glyph-name="afii10053" unicode="&#x404;" horiz-adv-x="1531" 
d="M109 719q0 166 53 303t149.5 235.5t233.5 151.5t307 53q152 0 274.5 -41t216.5 -102l43 -309h-49q-45 178 -176 268t-307 90q-129 0 -232.5 -46t-176 -131t-111.5 -206q-35 -106 -39 -233h541q35 2 58.5 25.5t23.5 58.5v45h53v-349h-53v48q0 33 -24 56t-54 26h-545
q8 -111 41 -205q41 -119 113.5 -204t173 -133t221.5 -54q102 0 195.5 28.5t167 93t123.5 171t69 259.5h47l-27 -337q-41 -68 -96 -124.5t-127 -97.5t-160 -64.5t-194 -23.5q-160 0 -295 53.5t-232.5 151.5t-151.5 235.5t-54 307.5z" />
    <glyph glyph-name="afii10054" unicode="&#x405;" horiz-adv-x="972" 
d="M106 172q0 49 9.5 108.5t25.5 112.5h49q-2 -20 -3 -33.5t-1 -23.5q0 -125 73 -197.5t183 -72.5h17q51 2 98 20t81 51t54.5 78t20.5 102q0 109 -74 172l-383 357q-61 59 -88 130t-27 132q0 66 24.5 129t71 113.5t115 81t158.5 30.5q41 0 87 -5t87 -15h96v-279h-53
q0 96 -61.5 150.5t-147.5 54.5q-51 0 -93 -17.5t-72.5 -47t-47 -67.5t-16.5 -81q0 -37 15 -84t63 -88l387 -367q63 -59 84.5 -125.5t21.5 -130.5q0 -86 -27.5 -158.5t-77.5 -123.5t-123 -80t-163 -29q-39 0 -87 6.5t-97 20.5t-94.5 36.5t-75.5 55.5q-4 18 -6.5 40t-2.5 44z
" />
    <glyph glyph-name="afii10055" unicode="&#x406;" horiz-adv-x="692" 
d="M111 0v53h43q47 0 77.5 32t34.5 77v1110q-4 45 -34.5 77.5t-77.5 32.5h-43v54h473v-54h-43q-47 0 -78 -32.5t-35 -77.5v-1110q4 -45 35 -77t78 -32h43v-53h-473z" />
    <glyph glyph-name="afii10056" unicode="&#x407;" horiz-adv-x="692" 
d="M76 1642q0 35 23.5 58.5t58.5 23.5t58.5 -22.5t23.5 -56.5q0 -35 -22.5 -57.5t-57.5 -22.5l-4 -4q-35 0 -57.5 23.5t-22.5 57.5zM111 0v53h43q47 0 77.5 32t34.5 77v1110q-4 45 -34.5 77.5t-77.5 32.5h-43v54h473v-54h-43q-47 0 -78 -32.5t-35 -77.5v-1110q4 -45 35 -77
t78 -32h43v-53h-473zM457 1638q0 35 23.5 58.5t58.5 23.5t58.5 -22.5t23.5 -57.5t-23 -57t-57 -22l-4 -5q-35 0 -57.5 24t-22.5 58z" />
    <glyph glyph-name="afii10057" unicode="&#x408;" horiz-adv-x="663" 
d="M33 -358q49 18 92 56t73.5 89t49 111.5t18.5 121.5v1252q-2 45 -33.5 77.5t-76.5 32.5h-43v52h473v-52h-43q-45 0 -77 -32.5t-36 -77.5v-1258q0 -88 -30.5 -164.5t-84 -133t-126 -88t-156.5 -31.5v45z" />
    <glyph glyph-name="afii10058" unicode="&#x409;" horiz-adv-x="1978" 
d="M33 2v53q96 18 139 52t73.5 85.5t49.5 110.5q12 39 16 80v903q-2 37 -28.5 63.5t-63.5 26.5h-39v56h1217v-56h-39q-37 0 -63.5 -25.5t-28.5 -60.5v-1147q0 -29 16 -49h188q119 0 182.5 79t67.5 212v16q0 57 -10 99v-2q-23 68 -60.5 109.5t-82.5 65t-91 31t-83 7.5
q-39 0 -60 -6q-12 -2 -22 -7v29q53 29 93 42t89 13q80 0 153.5 -27.5t130 -70.5t91.5 -116.5t35 -164.5q0 -188 -114 -295.5t-316 -107.5h-500v53h39q37 0 63.5 26.5t28.5 63.5v1102q-2 39 -28.5 66.5t-61.5 27.5h-451q-35 0 -60.5 -26.5t-27.5 -63.5l2 -829q0 -25 -2 -49
v-37l-8 -8q-6 -37 -21 -72q-31 -76 -84 -132t-125.5 -88t-203.5 -32z" />
    <glyph glyph-name="afii10059" unicode="&#x40a;" horiz-adv-x="2029" 
d="M72 2v53h43q47 0 77.5 32t34.5 77v1110q-4 45 -34.5 77.5t-77.5 32.5h-43v54h473v-54h-43q-47 0 -78 -32.5t-35 -77.5v-516h785v516q-2 43 -34 74.5t-77 31.5h-43v54h471v-54h-41q-47 0 -78 -32.5t-35 -77.5v-1108q2 -39 25 -68h178q119 0 182.5 79t67.5 212v16
q0 39 -10 80v-2q-23 68 -61 110t-83 65.5t-91 30.5t-83 7q-39 0 -59 -6q-12 -2 -23 -6v29q53 29 93 42t90 13q80 0 153.5 -27.5t130 -70.5t91 -117t34.5 -146q0 -188 -113.5 -295.5t-316.5 -107.5h-282l-240 2v53h43q45 0 76.5 32t34.5 75v502h-785v-500q4 -45 35 -77
t78 -32h43v-53h-473z" />
    <glyph glyph-name="afii10060" unicode="&#x40b;" horiz-adv-x="1519" 
d="M55 1206v269q16 -6 45 -13.5t63 -13.5t68.5 -10t63.5 -4h647q29 0 63.5 4t68.5 10t62.5 13t45.5 14v-269h-56v47q0 35 -23.5 59.5t-60.5 26.5h-342v-551l269 -2q203 2 301 -105.5t98 -295.5l-2 -223h2q4 -45 35 -77t78 -32h2v-53h-379v53q47 0 77.5 32t35.5 77h2l-2 241
q-4 133 -68 212t-182 77h-267v-692h-303v53h41q41 0 69 26.5t32 65.5v1194h-344q-37 -2 -59.5 -26.5t-22.5 -59.5v-47h-58z" />
    <glyph glyph-name="afii10061" unicode="&#x40c;" horiz-adv-x="1345" 
d="M68 0v53h43q47 0 77.5 32t34.5 77v1110q-4 45 -34.5 77.5t-77.5 32.5h-43v54h473v-54h-43q-47 0 -78 -32.5t-35 -77.5v-539l487 582q12 14 13 28q0 16 -12.5 27.5t-34.5 11.5h-37v52h456v-52h-24q-61 0 -114.5 -24.5t-88.5 -65.5l-487 -532l565 -633q37 -39 81 -55.5
t109 -18.5v-53h-100q-23 0 -60.5 3t-81.5 14.5t-90 35t-83 66.5l-498 571v-528q4 -45 35 -77t78 -32h43v-53h-473zM545 1577l129 139.5t129 130.5q25 -25 47 -52.5t39 -57.5l-166 -89l-166 -83z" />
    <glyph glyph-name="uni040D" unicode="&#x40d;" horiz-adv-x="1665" 
d="M43 1378v54l444 2v-54h-53q-45 0 -74.5 -30.5t-33.5 -73.5v-950l1067 1138h47l-10 -82q-4 -37 -7.5 -85t-3.5 -99v-1040q2 -45 33 -76t74 -31h53v-53h-446v53h53q43 0 72.5 31t33.5 74v952l-1067 -1139h-45q6 43 10 88q4 39 7.5 87.5t3.5 95.5v1036q-2 41 -33 71.5
t-72 30.5h-53zM774 1577l129.5 139.5l128.5 130.5q25 -25 47.5 -52.5t38.5 -57.5l-166 -89l-166 -83z" />
    <glyph glyph-name="afii10062" unicode="&#x40e;" horiz-adv-x="1243" 
d="M57 1382v52h432v-50h-26q-94 6 -81 -51t320 -727l218 664q-2 45 -34 77.5t-77 32.5h-31v54h432v-54h-43q-45 0 -76.5 -32.5t-50.5 -77.5l-280 -881q-20 -66 -51 -142.5t-86.5 -139t-123 -88t-315.5 -21.5v59q195 0 254.5 38t101.5 89.5t99 210.5l6 27
q-403 870 -451.5 915t-93.5 45h-43zM420 1778h20q16 -41 68.5 -76t124.5 -35t124 35t68 76h17q0 -43 -16.5 -81t-46 -68t-67.5 -46t-81 -16t-81 16t-67.5 46t-46 68t-16.5 81z" />
    <glyph glyph-name="afii10145" unicode="&#x40f;" horiz-adv-x="1439" 
d="M109 0v55h38q37 0 64 27t29 63v1143q-2 37 -29 63.5t-64 26.5h-38v54h426v-54h-39q-37 0 -63.5 -26.5t-29.5 -63.5v-1106q2 -37 28 -63.5t61 -26.5h450q35 0 61.5 27.5t28.5 66.5v1102q-2 37 -28.5 63.5t-63.5 26.5h-39v54h428l-6 -54h-37q-37 0 -63.5 -26.5t-28.5 -63.5
v-1147q2 -35 28.5 -60.5t63.5 -25.5h39v-55h-565q4 -96 34.5 -128t77.5 -32v-53h-325v53q47 0 77.5 32t34.5 128h-550z" />
    <glyph glyph-name="afii10017" unicode="&#x410;" horiz-adv-x="1458" 
d="M-29 2v53h35q41 0 86 27t74 88h-2l454 1075l37 86q14 35 25.5 72t11.5 59h45l537 -1290v2q29 -63 74 -90t86 -27h34v-53h-485v53h35q27 0 47 16.5t20 49.5q0 18 -6 37l-125 329h-514l-131 -331v2q-6 -23 -6 -37q0 -33 21.5 -50.5t48.5 -17.5h35v-53h-437zM475 584h445
l-218 577z" />
    <glyph glyph-name="afii10018" unicode="&#x411;" 
d="M106 1380v54h844l127 -357h-55q-23 57 -51.5 105.5t-68.5 83t-94 54t-130 19.5h-227q-25 -29 -27 -67v-1178h278q119 0 182.5 79t67.5 212v16q0 57 -10 99v-2q-23 68 -60.5 109.5t-82.5 65t-91 31t-83 7.5q-39 0 -60 -6q-12 -2 -22 -7v29q53 29 93 42t89 13
q80 0 153.5 -27.5t130 -70.5t91.5 -116.5t35 -164.5q0 -188 -114 -295.5t-316 -107.5h-596v55h43q43 0 74.5 29t35.5 70v1118v2q-4 37 -26 65l-9 9q-16 16 -34 24q-14 6 -33 8h-10h-44z" />
    <glyph glyph-name="afii10019" unicode="&#x412;" horiz-adv-x="1200" 
d="M115 -2v53h43q47 0 77.5 32t34.5 77v1112q0 45 -32.5 76.5t-79.5 31.5h-41v54l413 -2q215 -4 333 -99.5t118 -253.5q0 -113 -53.5 -187.5t-124.5 -111.5q141 -39 221 -143.5t80 -245.5q0 -180 -125 -286.5t-358 -106.5h-506zM434 102l180 -2q143 4 225.5 82t82.5 219
q0 106 -42 173t-107.5 102t-145.5 47q-74 10 -193 12v-633zM434 786q90 1 141 9q57 10 106.5 39.5t83.5 84t34 146.5q0 127 -70 196.5t-205 69.5h-90v-545z" />
    <glyph glyph-name="afii10020" unicode="&#x413;" horiz-adv-x="1124" 
d="M66 0v55h43q47 0 77.5 32t34.5 77v1108q-4 45 -34.5 76.5t-77.5 31.5h-43v54h860l127 -357h-56q-23 57 -51 105.5t-68 83t-94.5 54t-130.5 19.5h-270v-1175q4 -45 35 -77t78 -32h43v-55h-473z" />
    <glyph glyph-name="afii10021" unicode="&#x414;" horiz-adv-x="1570" 
d="M-39 -262l94 368h230q18 23 20 54l221 1130q-2 37 -28.5 63.5t-63.5 26.5h-39v56l996 -4v-56h-39q-37 0 -63.5 -25.5t-28.5 -60.5v-1130q2 -31 20 -56h231l95 -366h-56q-23 57 -51.5 105t-52 83t-78.5 56q-45 16 -104 18h-988q-39 -4 -77 -18q-55 -20 -79 -55.5
t-52.5 -83.5t-51.5 -105h-55zM442 160q2 -31 19 -54l616 -2q19 25 21 56v1085q-2 39 -29 66.5t-61 27.5l-256 4q-35 0 -60.5 -26.5t-27.5 -63.5z" />
    <glyph glyph-name="afii10022" unicode="&#x415;" 
d="M96 -4v53h43q47 0 78 32t35 79v1118q-4 41 -36 69.5t-75 28.5h-43v54h602q31 0 69 4t74 10t66.5 14t46.5 17v-295h-53v53q0 41 -27.5 69.5t-68.5 32.5h-389v-583h319q35 2 58.5 25.5t23.5 58.5v45h53v-349h-53v48q0 33 -23.5 56t-54.5 26h-321v-568h268q76 0 130 19.5
t94 54.5t69 83t51 105h55l-131 -360h-860z" />
    <glyph glyph-name="afii10024" unicode="&#x416;" horiz-adv-x="2097" 
d="M68 0v53q66 2 109.5 18.5t80.5 55.5l565 633l-487 532q-35 41 -88 65.5t-115 24.5h-24v52h438v-52h-37q-23 0 -35 -11t-12 -28q0 -14 12 -28l488 -533v490q-4 45 -35 77.5t-78 32.5h-43v54h473v-54h-43q-47 0 -78 -32.5t-35 -77.5v-490l488 533q12 14 12 28
q0 16 -12.5 27.5t-34.5 11.5h-37v52h436v-52h-24q-61 0 -114.5 -24.5t-88.5 -65.5l-487 -532l565 -633q37 -39 81 -55.5t109 -18.5v-53h-100q-23 0 -60.5 3t-71.5 14.5t-80 35t-83 66.5l-498 571v-528q4 -45 35 -77t78 -32h43v-53h-473v53h43q47 0 77.5 32t35.5 77v528
l-498 -571q-37 -43 -74 -66.5t-81 -35t-82 -14.5t-60 -3h-100z" />
    <glyph glyph-name="afii10025" unicode="&#x417;" horiz-adv-x="978" 
d="M68 47l41 221l59 2q-80 -203 75.5 -183.5t264 90.5t150.5 143.5t49 150.5q0 80 -31 139.5t-86 89t-131 48t-166 18.5l10 55q63 0 129 20.5t118 59.5t85 96.5t33 130.5q0 10 -2 17q-2 41 -15.5 81t-41 70.5t-70.5 49t-103 18.5q-113 0 -175 -64.5t-62 -169.5q0 -4 1 -17
t1 -17h-51l-41 207q53 59 129.5 104t199.5 51h31q88 0 158.5 -24.5t120 -67.5t76 -100.5t26.5 -122.5q0 -55 -18.5 -107.5t-49 -96.5t-71.5 -77t-84 -51q53 -18 101 -50t84 -68t57.5 -95t21.5 -133q0 -76 -49 -171t-134 -167t-201 -107.5t-247 -35.5q-152 16 -192 63z" />
    <glyph glyph-name="afii10026" unicode="&#x418;" horiz-adv-x="1665" 
d="M43 1380v54l444 2v-54h-53q-45 0 -74.5 -30.5t-33.5 -73.5v-952l1067 1138h47l-10 -82q-4 -37 -7.5 -85t-3.5 -99v-1040q2 -45 33 -76t74 -31h53v-53h-446v53h53q43 0 72.5 31t33.5 74v952l-1067 -1139h-45q6 43 10 88q4 39 7.5 87.5t3.5 95.5v1038q-2 41 -33 71.5
t-72 30.5h-53z" />
    <glyph glyph-name="afii10027" unicode="&#x419;" horiz-adv-x="1665" 
d="M43 1378v54l444 2v-54h-53q-45 0 -74.5 -30.5t-33.5 -73.5v-950l1067 1138h47l-10 -82q-4 -37 -7.5 -85t-3.5 -99v-1040q2 -45 33 -76t74 -31h53v-53h-446v53h53q43 0 72.5 31t33.5 74v952l-1067 -1139h-45q6 43 10 88q4 39 7.5 87.5t3.5 95.5v1036q-2 41 -33 71.5
t-72 30.5h-53zM618 1778h21q16 -41 68.5 -76t123.5 -35q72 0 124.5 35t68.5 76h16q0 -43 -16 -81t-46 -68t-68 -46t-81 -16t-80.5 16t-67.5 46t-46.5 68t-16.5 81z" />
    <glyph glyph-name="afii10028" unicode="&#x41a;" horiz-adv-x="1345" 
d="M68 0v53h43q47 0 77.5 32t34.5 77v1110q-4 45 -34.5 77.5t-77.5 32.5h-43v54h473v-54h-43q-47 0 -78 -32.5t-35 -77.5v-539l487 582q12 14 13 28q0 16 -12.5 27.5t-34.5 11.5h-37v52h456v-52h-24q-61 0 -114.5 -24.5t-88.5 -65.5l-487 -532l565 -633q37 -39 81 -55.5
t109 -18.5v-53h-100q-23 0 -60.5 3t-81.5 14.5t-90 35t-83 66.5l-498 571v-528q4 -45 35 -77t78 -32h43v-53h-473z" />
    <glyph glyph-name="afii10029" unicode="&#x41b;" horiz-adv-x="1499" 
d="M55 2v53q96 18 139.5 52t74 85.5t48.5 110.5q12 39 17 80v903q-2 37 -28.5 63.5t-63.5 26.5h-39v56h1216v-56h-39q-37 0 -63.5 -25.5t-28.5 -60.5v-1147q2 -37 28.5 -63.5t63.5 -26.5h37l6 -53h-428v53h39q37 0 63.5 26.5t28.5 63.5v1102q-2 39 -28.5 66.5t-61.5 27.5
h-450q-35 0 -60.5 -26.5t-27.5 -63.5l2 -829q0 -25 -2 -49v-37l-9 -8q-6 -37 -20 -72q-31 -76 -84 -132t-126 -88t-204 -32z" />
    <glyph glyph-name="afii10030" unicode="&#x41c;" horiz-adv-x="1906" 
d="M23 0v53h49q47 0 84 30t47 81l151 1298h43l547 -1183l537 1183h43l153 -1298q10 -51 47 -81t84 -30h50v-53h-469v51h49q25 0 43 19.5t18 44.5v4l-84 944l-395 -877q-16 -35 -29 -71q-12 -33 -23.5 -71t-15.5 -73h-43l-491 1063l-82 -915v-4q0 -25 18.5 -44.5t42.5 -19.5
h47v-51h-421z" />
    <glyph glyph-name="afii10031" unicode="&#x41d;" horiz-adv-x="1665" 
d="M121 2v53h43q47 0 77.5 32t34.5 77v1110q-4 45 -34.5 77.5t-77.5 32.5h-43v54h473v-54h-43q-47 0 -78 -32.5t-35 -77.5v-516h785v516q-2 43 -34 74.5t-77 31.5h-43v54h471v-54h-41q-47 0 -77.5 -32.5t-35.5 -77.5v-1108q4 -45 35 -77t78 -32h41v-53l-471 2v53h43
q45 0 77 32t34 75v502h-785v-500q4 -45 35 -77t78 -32h43v-53h-473z" />
    <glyph glyph-name="afii10032" unicode="&#x41e;" horiz-adv-x="1716" 
d="M125 717q0 168 54 305t151.5 235.5t232.5 151.5t299 53t299 -53t232.5 -151.5t151.5 -235.5t54 -305t-54 -305.5t-151.5 -235.5t-232.5 -151.5t-299 -53.5t-299 53.5t-232.5 151.5t-151.5 235.5t-54 305.5zM313 717q0 -147 39 -267t112 -205t174 -132t224 -47
q125 0 226.5 47t173 132t111.5 204.5t40 267.5q0 147 -40 267t-111.5 205t-173 132t-226.5 47q-123 0 -224 -47t-174 -132t-112 -205t-39 -267z" />
    <glyph glyph-name="afii10033" unicode="&#x41f;" horiz-adv-x="1439" 
d="M109 0v53h38q37 0 64 26.5t29 63.5v1143q-2 37 -29 63.5t-64 26.5h-38v56h1216v-56h-39q-37 0 -63.5 -25.5t-28.5 -60.5v-1147q2 -37 28.5 -63.5t63.5 -26.5h37l6 -53h-428v53h39q37 0 63.5 26.5t28.5 63.5v1102q-2 39 -28.5 66.5t-61.5 27.5h-450q-35 0 -60.5 -26.5
t-28.5 -63.5v-1106q2 -37 29 -63.5t64 -26.5h39v-53h-426z" />
    <glyph glyph-name="afii10034" unicode="&#x420;" horiz-adv-x="1155" 
d="M106 0v53h44q47 0 77.5 32t34.5 77v1118q-4 41 -35.5 69.5t-74.5 28.5h-43v56h532q203 0 316.5 -107.5t113.5 -296.5q0 -90 -35 -163.5t-91 -116.5t-130 -71t-153 -28q-49 0 -89.5 13.5t-93.5 42.5v28q10 -4 23 -6q20 -6 59 -6q37 0 83 7t91 30.5t83 65.5t61 110v-2
q10 41 10 98v17q-4 133 -67.5 211.5t-182.5 78.5h-215v-1177q4 -45 34.5 -77t78.5 -32h43v-53h-474z" />
    <glyph glyph-name="afii10035" unicode="&#x421;" horiz-adv-x="1556" 
d="M109 719q0 166 53 303t149.5 235.5t233.5 151.5t307 53q152 0 274.5 -41t216.5 -102l43 -309h-49q-45 178 -176 268t-307 90q-129 0 -232.5 -46t-176 -131t-111.5 -205t-39 -265t41 -264t113.5 -204t173 -133t221.5 -54q102 0 195.5 28.5t167 93t123.5 171t69 259.5h47
l-27 -337q-41 -68 -96 -124.5t-127 -97.5t-160 -64.5t-194 -23.5q-160 0 -295 53.5t-232.5 151.5t-151.5 235.5t-54 307.5z" />
    <glyph glyph-name="afii10036" unicode="&#x422;" horiz-adv-x="1265" 
d="M35 1186v295q18 -8 49 -16.5t66.5 -14.5t73.5 -10t69 -4h680q31 0 68.5 4t73.5 10t66.5 14.5t47.5 16.5v-295h-53v53q0 41 -28 69.5t-69 30.5h-364v-1179q4 -45 34.5 -77t77.5 -32h43v-53h-473v53h43q43 0 75 31t34 76v1181h-363q-41 -2 -68.5 -30.5t-27.5 -69.5v-53h-55
z" />
    <glyph glyph-name="afii10037" unicode="&#x423;" horiz-adv-x="1247" 
d="M57 1382v52h432v-50h-26q-94 6 -81 -51t320 -727l218 664q-2 45 -34 77.5t-77 32.5h-31v54h432v-54h-43q-45 0 -76.5 -32.5t-50.5 -77.5l-280 -881q-20 -66 -51 -142.5t-86.5 -139t-123 -88t-315.5 -21.5v59q195 0 254.5 38t101.5 89.5t99 210.5l6 27
q-403 870 -451.5 915t-93.5 45h-43z" />
    <glyph glyph-name="afii10038" unicode="&#x424;" horiz-adv-x="1562" 
d="M55 727q0 186 105.5 293.5t312.5 107.5h215v144q-2 45 -33.5 77.5t-76.5 32.5h-43v54h471v-54h-43q-45 0 -77 -32.5t-34 -77.5v-144h217q207 0 312.5 -107.5t105.5 -293.5q0 -90 -34 -164t-89 -126t-127 -79.5t-150 -27.5q-49 0 -100 12t-102 41v49q14 -4 33 -6
q14 -4 32.5 -5t36.5 -1q37 0 84 7t91 29.5t82 64.5t61 110q4 16 8 42.5t4 55.5v16q-4 131 -67.5 211t-184.5 80h-213v-874q2 -45 34 -77t77 -32h43v-53h-471v53h43q45 0 76.5 32t33.5 77v874h-211q-121 0 -184.5 -79.5t-67.5 -211.5v-16q0 -29 4 -55.5t9 -42.5
q23 -68 60.5 -110t81.5 -64.5t91 -29.5t84 -7q18 0 36.5 1t33.5 5q18 2 32 6v-49q-51 -29 -102 -41t-100 -12q-78 0 -150 27.5t-127 79.5t-89 126t-34 164z" />
    <glyph glyph-name="afii10039" unicode="&#x425;" horiz-adv-x="1355" 
d="M-16 0v53h45q57 0 108 34t82 77l187.5 279.5l187.5 281.5l-346 545q-29 43 -79 75.5t-110 32.5h-43v56h519v-56h-43q-25 0 -44.5 -20.5t-19.5 -46.5q0 -14 6 -29l262 -410l258 410v-2q8 14 9 33q0 27 -19.5 46t-42.5 19h-43v56h483v-56h-45q-59 0 -109 -32.5t-79 -75.5
l-344 -508l383 -600q29 -43 77 -76t107 -33h51v-53h-520v53h41q27 0 45.5 19.5t18.5 48.5q0 12 -6 29l-295 462l-293 -462q-8 -14 -8 -31q0 -27 19 -46.5t44 -19.5h43v-53h-487z" />
    <glyph glyph-name="afii10040" unicode="&#x426;" horiz-adv-x="1460" 
d="M63 0v55h39q37 0 64 27t29 63v1143q-2 37 -29 63.5t-64 26.5h-39v54h426v-54h-38q-37 0 -64 -26.5t-29 -63.5v-1106q2 -37 28 -63.5t60 -26.5h451q35 0 61.5 27.5t28.5 66.5v1102q-2 37 -28.5 63.5t-63.5 26.5h-39v54h428l-6 -54h-37q-37 0 -63.5 -26.5t-28.5 -63.5
v-1147q2 -31 20 -53h140l94 -350h-55q-23 57 -51.5 105t-52 83t-78 54.5t-130.5 19.5h-973z" />
    <glyph glyph-name="afii10041" unicode="&#x427;" horiz-adv-x="1333" 
d="M18 1384v54h474v-54h-43q-47 0 -78 -32q-27 -29 -35 -66v-6q-8 -137 -8 -231v-17q4 -133 67.5 -212t182.5 -79h372v531q-4 45 -34.5 77.5t-77.5 32.5h-43v54h473v-54h-43q-47 0 -78 -32.5t-35 -77.5v-1110q4 -45 35 -77t78 -32h43v-53h-473v53h43q47 0 77.5 32t34.5 77
v485h-375q-203 0 -317 107q-111 106 -84 520v2v2q-6 43 -35 74q-31 33 -78 32h-43z" />
    <glyph glyph-name="afii10042" unicode="&#x428;" horiz-adv-x="1863" 
d="M78 0v55h39q20 0 39 8h2q12 8 22 19l4 4q8 8 13 16l8 21l2 6q2 8 2 16v1143v4q-4 35 -29 60q-8 6 -14 12q-8 4 -19 8q-6 2 -10 4h-4q-4 2 -8 2h-8h-39v54h426v-54h-39q-37 0 -64 -26l-8 -9q-18 -25 -20 -55v-1106v-6q2 -8 2 -16q2 -4 2 -8q6 -14 18 -29l4 -4
q20 -20 45 -27h17h301h8h6q6 2 10 4q20 6 37 23q4 6 8 10t7 8q2 6 4 10q2 6 4 11l2 4v1126q-2 37 -29 64q-25 23 -55 26h-4h-43v54h432l-6 -54h-37h-2h-8q-4 -2 -11 -2q-12 -4 -22 -8q-4 -4 -10 -8q-2 -2 -6 -4l-5 -4l-8 -9q-2 -4 -4 -6q-10 -14 -14 -30q0 -2 -2 -4v-15
v-1124q6 -27 24 -45q27 -27 62 -27h305q35 0 61.5 27.5t28.5 66.5v1102q-2 37 -28.5 63.5t-63.5 26.5h-39v54h428l-6 -54h-37q-37 0 -63.5 -26.5t-28.5 -63.5v-1147q2 -35 28.5 -60.5t63.5 -25.5h39v-55h-1710z" />
    <glyph glyph-name="afii10043" unicode="&#x429;" horiz-adv-x="1943" 
d="M78 0v55h39q20 0 39 8h2q12 8 22 19l4 4q8 8 13 16l8 21l2 6q2 8 2 16v1147q-4 35 -29 60q-8 6 -14 12q-8 4 -19 8q-6 2 -10 4h-4q-4 2 -8 2h-47v54h426v-54h-39q-37 0 -64 -26l-8 -9q-18 -25 -20 -55v-1112q2 -8 2 -16q2 -4 2 -8q6 -14 18 -29l4 -4q20 -20 45 -27h332
q6 2 10 4q20 6 37 23q4 6 8 10t7 8q2 6 4 10q2 6 4 11l2 4v1126q-2 37 -29 64q-25 23 -55 26h-47v54h432l-6 -54h-47q-4 -2 -11 -2q-12 -4 -22 -8q-4 -4 -10 -8q-2 -2 -6 -4l-13 -13q-2 -4 -4 -6q-10 -14 -14 -30q0 -2 -2 -4v-1139q6 -27 24 -45q27 -27 62 -27h305
q35 0 61.5 27.5t28.5 66.5v1102q-2 37 -28.5 63.5t-63.5 26.5h-39v54h428l-6 -54h-37q-37 0 -63.5 -26.5t-28.5 -63.5v-1147q2 -29 18 -51h129l94 -350h-55q-23 57 -51.5 105.5t-52 83t-78.5 55.5q-35 12 -80 16h-1503z" />
    <glyph glyph-name="afii10044" unicode="&#x42a;" horiz-adv-x="1261" 
d="M61 1206v269q16 -6 45 -13.5t63 -13.5t80 -10t224 -4h250v-54h-43q-47 0 -78 -31.5t-35 -76.5v-1178h215q119 0 182.5 79t67.5 212v16q0 57 -10 99v-2q-23 68 -60.5 109.5t-82.5 65t-91.5 31t-82.5 7.5q-39 0 -60 -6q-12 -2 -22 -7v29q53 29 93 42t89 13
q80 0 153.5 -27.5t130 -70.5t91 -116.5t34.5 -164.5q0 -188 -113.5 -295.5t-316.5 -107.5h-532v55h43q43 0 74.5 29t36.5 70l2 1185h-207q-37 -2 -59.5 -26.5t-22.5 -59.5v-47h-58z" />
    <glyph glyph-name="afii10045" unicode="&#x42b;" horiz-adv-x="1648" 
d="M106 1380v54h474v-54h-43q-47 0 -78 -31.5t-35 -76.5v-1178h215q119 0 182.5 79t67.5 212v16q0 57 -10 99v-2q-23 68 -61 109.5t-83 65t-91 31t-83 7.5q-39 0 -59 -6q-12 -2 -23 -7v29q53 29 93 42t90 13q80 0 153.5 -27.5t129.5 -70.5t91 -116.5t35 -164.5
q0 -188 -113.5 -295.5t-316.5 -107.5h-532v55h43q43 0 74.5 29t35.5 70v1118q-4 45 -34.5 76.5t-77.5 31.5h-44zM1087 2v53h43q47 0 78 32t35 77v1110q-4 45 -34.5 77.5t-78.5 32.5h-43v54h474v-54h-43q-47 0 -78 -32.5t-35 -77.5v-1110q4 -45 34.5 -77t78.5 -32h43v-53
h-474z" />
    <glyph glyph-name="afii10046" unicode="&#x42c;" 
d="M106 1380v54h474v-54h-43q-47 0 -78 -31.5t-35 -76.5v-1178h215q119 0 182.5 79t67.5 212v16q0 57 -10 99v-2q-23 68 -61 109.5t-83 65t-91 31t-83 7.5q-39 0 -59 -6q-12 -2 -23 -7v29q53 29 93 42t90 13q80 0 153.5 -27.5t129.5 -70.5t91 -116.5t35 -164.5
q0 -188 -113.5 -295.5t-316.5 -107.5h-532v55h43q43 0 74.5 29t35.5 70v1118q-4 45 -34.5 76.5t-77.5 31.5h-44z" />
    <glyph glyph-name="afii10047" unicode="&#x42d;" horiz-adv-x="1531" 
d="M109 618h47q18 -154 68 -260t124 -170.5t167 -93t196 -28.5q121 6 221 54t173 133t114 204q33 94 41 205h-545q-31 -2 -54.5 -26t-23.5 -56v-48h-53v349h53v-45q0 -35 23.5 -58.5t58.5 -25.5h541q-4 127 -39 233q-39 121 -112 206t-176.5 131t-232.5 46q-176 0 -307 -90
t-176 -268h-49l43 309q94 61 217 102t274 41q170 0 307.5 -53t233.5 -151.5t149.5 -235.5t53.5 -303q0 -170 -54.5 -307.5t-151.5 -235.5t-232.5 -151.5t-294.5 -53.5q-106 0 -194.5 23.5t-160 64.5t-127 97.5t-96.5 124.5z" />
    <glyph glyph-name="afii10048" unicode="&#x42e;" horiz-adv-x="2144" 
d="M76 2v53h43q47 0 77.5 32t34.5 77v1110q-4 45 -34.5 77.5t-77.5 32.5h-43v54h473v-54h-43q-47 0 -78 -32.5t-35 -77.5v-500h209q8 133 53 248q55 137 152.5 235.5t233 151.5t299 53t299 -53t232.5 -151.5t151.5 -235.5t54.5 -305t-54.5 -305.5t-151.5 -235.5
t-232.5 -151.5t-299.5 -53.5t-299 53.5t-232 151.5t-153 236q-49 123 -53 272h-209v-520q4 -45 35 -77t78 -32h43v-53h-473zM791 717q0 -147 38.5 -267t111.5 -205t174 -132t224 -47q125 0 226.5 47t173 132t111.5 204.5t40 267.5q0 147 -40 267t-111.5 205t-173 132
t-226.5 47q-123 0 -224 -47t-174 -132t-112 -206q-35 -106 -38 -238v-28z" />
    <glyph glyph-name="afii10049" unicode="&#x42f;" horiz-adv-x="1386" 
d="M43 -4v53q96 0 156.5 40t119.5 106q29 31 72 86l82 108q47 63 94 133l50.5 61.5t56.5 55.5q-66 10 -122 47t-97 91t-64.5 121t-23.5 136q0 184 108.5 288.5t298.5 104.5l557 7v-54h-43q-47 0 -77.5 -32.5t-34.5 -77.5v-1110q4 -45 34.5 -77t77.5 -32h43v-53h-471v53h43
q47 0 78 32t35 77v524q-82 0 -105.5 -11t-43 -29.5t-37 -42l-64.5 -90.5l-92 -128l-48.5 -68.5l-43 -62.5l-33.5 -48.5t-19 -25.5q-25 -31 -56.5 -62.5t-75.5 -58t-100 -44t-128 -17.5h-127zM553 1028q0 -59 10 -96q20 -63 55 -101t77 -58.5t85 -28t80 -7.5q23 -2 41 -2h115
v600h-10q-16 0 -39 1t-52 1q-31 0 -64.5 -1t-68.5 -3q-104 -6 -164.5 -81.5t-64.5 -204.5v-19z" />
    <glyph glyph-name="afii10065" unicode="&#x430;" horiz-adv-x="1357" 
d="M-20 0v53h32q35 0 74 24.5t68 82.5l413 882l37 82q14 35 25.5 72t13.5 61h45l496 -1097q27 -57 64.5 -82t72.5 -25h33v-53h-443v53h33q23 0 42.5 16.5t19.5 47.5q0 14 -7 33l-104 253h-481l-105 -247q-8 -18 -8 -39q0 -31 18.5 -47.5t40.5 -16.5h33v-53h-413zM453 498
h403l-199 483z" />
    <glyph glyph-name="afii10066" unicode="&#x431;" horiz-adv-x="1132" 
d="M63 -2v55h46q41 0 69.5 25.5t30.5 62.5v942q-2 39 -29 66q-27 25 -65 27h-47v53h831l121 -316l-59 -8q-20 49 -46 89t-62 70t-84 47t-114 19h-268q-14 -20 -14 -47v-989h219q139 0 218 65.5t79 178.5q0 25 -3 53.5t-9 48.5q-23 63 -59 103.5t-77 62t-83 28.5t-78 7
q-23 0 -44.5 -2t-37.5 -6l-39 -8v30q59 29 116.5 47.5t110.5 18.5q78 0 146.5 -25.5t121 -67.5t83 -112t30.5 -158q0 -82 -34 -147.5t-96.5 -111.5t-149.5 -71.5t-191 -27.5z" />
    <glyph glyph-name="afii10067" unicode="&#x432;" horiz-adv-x="1116" 
d="M74 2v53h41q43 0 71.5 27t30.5 63v940q-2 39 -30.5 64t-71.5 25h-41v55h426q55 0 130 -10.5t141.5 -43t112.5 -96t46 -168.5q0 -82 -50.5 -144t-119.5 -97q127 -33 207 -119t80 -201q0 -102 -44.5 -168.5t-112 -106.5t-149.5 -56.5t-157 -16.5h-510zM379 94h205
q59 0 111.5 15.5t90 47t60 80t22.5 113.5q0 90 -42 145.5t-108.5 85t-149.5 40t-189 10.5v-537zM379 684q82 0 143 6q61 8 113.5 31.5t86.5 69t34 120.5q0 117 -67.5 170.5t-190.5 53.5h-119v-451z" />
    <glyph glyph-name="afii10068" unicode="&#x433;" horiz-adv-x="1050" 
d="M37 -4v55h41q41 0 70.5 26.5t31.5 63.5v940q-2 39 -28.5 66t-67.5 27h-45v53h838l120 -316l-59 -8q-20 49 -46 89t-61.5 70t-84 47t-113.5 19h-293v-987q2 -37 31.5 -63.5t70.5 -26.5h41v-55h-446z" />
    <glyph glyph-name="afii10069" unicode="&#x434;" horiz-adv-x="1579" 
d="M-37 -262l94 368h230q18 23 20 54l221 952q-2 37 -28.5 63.5t-63.5 26.5h-39v55l996 -4v-55h-39q-37 0 -63.5 -25.5t-28.5 -60.5v-952q2 -31 20 -56h231l95 -366h-56q-23 57 -51 105t-52 83t-79 56q-45 16 -104 18h-987q-39 -4 -78 -18q-55 -20 -79 -55.5t-52.5 -83.5
t-51.5 -105h-55zM438 160q2 -31 19 -54l622 -2q19 25 21 56v907q-2 39 -29 66.5t-61 27.5h-262q-35 0 -60.5 -26.5t-28.5 -63.5z" />
    <glyph glyph-name="afii10070" unicode="&#x435;" horiz-adv-x="1118" 
d="M70 -10v53h45q41 0 67.5 26.5t28.5 65.5v946q0 37 -27.5 62.5t-68.5 25.5h-45v54h600q29 0 63.5 4t68.5 10t61.5 13t43.5 14v-269h-55v47q0 35 -23.5 59.5t-60.5 26.5h-395v-471h323q33 2 49.5 21.5t16.5 46.5v43h55v-313h-55v43q0 27 -15.5 45t-46.5 22h-325v-471h293
q68 2 115.5 19.5t82.5 46t60.5 69.5t46.5 88h57l-123 -327h-837z" />
    <glyph glyph-name="afii10072" unicode="&#x436;" horiz-adv-x="1910" 
d="M74 2v53q72 2 108.5 19.5t71.5 54.5l481 528l-424 453q-33 31 -80 48.5t-100 17.5h-25v55h412v-55h-35q-39 0 -39 -29q0 -10 11 -21l417 -450v409q-2 37 -30.5 64t-69.5 27h-41v55h443v-55h-41q-41 0 -70 -26t-31 -60v-416l422 454q10 10 10 21q0 29 -39 29h-34v55h413
v-55h-24q-53 0 -100.5 -17.5t-80.5 -48.5l-423 -453l481 -528q35 -37 71.5 -54.5t108.5 -19.5v-53h-94q-23 0 -59.5 3t-78.5 14.5t-74 35t-69 66.5l-430 473v-449q2 -39 31 -65.5t70 -26.5h41v-53h-443v53h41q41 0 69.5 27t30.5 65v443l-426 -469q-37 -43 -67.5 -66.5
t-72.5 -35t-79 -14.5t-59 -3h-94z" />
    <glyph glyph-name="afii10073" unicode="&#x437;" horiz-adv-x="952" 
d="M68 57l38 174v-10h54q-20 -43 -21 -84q0 -76 82 -76h21q154 12 264 76q53 29 91 60.5t60 66.5q41 63 48 150q0 76 -31 125q-33 57 -86 82q-57 27 -131 43q-72 14 -164 14l8 35v-11q61 0 129 19q57 14 119 53q39 27 69.5 73t43 98t1 102.5t-54.5 80.5q-18 14 -35.5 25.5
t-35.5 20.5q-49 16 -103 16q-113 0 -174 -60q-63 -51 -63 -151q0 -8 2 -16v-2h-52v-9l-38 168q49 47 129 86q35 16 87 26.5t111 14.5h31q92 0 160 -20q78 -23 118 -56q27 -20 46.5 -39.5t29.5 -41.5q27 -47 27 -101q0 -43 -19 -88q-16 -41 -49 -80q-14 -16 -31.5 -31.5
t-39.5 -31.5q-16 -12 -46 -24.5l-71 -28.5q90 -27 135 -52q49 -29 84 -57q33 -29 57 -76q20 -49 21 -110q0 -86 -49 -166q-45 -76 -133 -140q-86 -61 -201 -90q-115 -31 -248 -30q-154 16 -190 73z" />
    <glyph glyph-name="afii10074" unicode="&#x438;" horiz-adv-x="1583" 
d="M59 1184v53l412 4v-53h-51q-37 0 -63.5 -24.5t-30.5 -59.5v-799l1011 952h49l-12 -83q-4 -37 -8 -85.5t-4 -97.5v-852q2 -37 29.5 -62.5t64.5 -25.5h51v-53h-409v53h51q37 0 63.5 25.5t30.5 62.5v791l-1014 -961h-45q6 43 11 88q4 39 7 87.5t3 95.5v860q-4 35 -31 59.5
t-65 24.5h-50z" />
    <glyph glyph-name="afii10075" unicode="&#x439;" horiz-adv-x="1583" 
d="M59 1184v53l412 4v-53h-51q-37 0 -63.5 -24.5t-30.5 -59.5v-799l1011 952h49l-12 -83q-4 -37 -8 -85.5t-4 -97.5v-852q2 -37 29.5 -62.5t64.5 -25.5h51v-53h-409v53h51q37 0 63.5 25.5t30.5 62.5v791l-1014 -961h-45q6 43 11 88q4 39 7 87.5t3 95.5v860q-4 35 -31 59.5
t-65 24.5h-50zM586 1573h20q16 -41 68.5 -76t124.5 -35t124 35t68 76h17q0 -43 -16.5 -81t-46.5 -67.5t-67.5 -46t-80.5 -16.5t-81 16.5t-68 46t-46 67.5t-16 81z" />
    <glyph glyph-name="afii10076" unicode="&#x43a;" horiz-adv-x="1277" 
d="M41 -2v53h41q41 0 69.5 26.5t30.5 65.5v938q-2 37 -30.5 63.5t-69.5 26.5h-41v56h442v-56h-41q-41 0 -69.5 -25.5t-30.5 -60.5v-942q2 -39 30.5 -65.5t69.5 -26.5h41v-53h-442zM395 608l436 516q10 10 11 21q0 29 -39 29h-35v55h438v-55h-24q-53 0 -100.5 -17.5
t-80.5 -48.5l-423 -453l481 -528q35 -37 71.5 -54.5t108.5 -19.5v-53h-94q-23 0 -59.5 3t-78.5 14.5t-86 35t-81 66.5z" />
    <glyph glyph-name="afii10077" unicode="&#x43b;" horiz-adv-x="1439" 
d="M33 2v53q96 18 139 52t73.5 85.5t49.5 110.5q12 39 16 80v717q-2 37 -28.5 63.5t-63.5 26.5h-39v55h1217v-55h-39q-37 0 -63.5 -25.5t-28.5 -60.5v-961q2 -37 28.5 -63.5t63.5 -26.5h37l6 -53h-428v53h39q37 0 63.5 26.5t28.5 63.5v916q-2 39 -28.5 66.5t-61.5 27.5h-451
q-35 0 -60.5 -26.5t-27.5 -63.5l2 -643q0 -25 -2 -49v-37l-8 -8q-6 -37 -21 -72q-31 -76 -84 -132t-125.5 -88t-203.5 -32z" />
    <glyph glyph-name="afii10078" unicode="&#x43c;" horiz-adv-x="1798" 
d="M10 0v53h45q47 0 81 25.5t40 73.5l156 1105h45l516 -993l498 993h45l159 -1112v2q8 -47 43 -71.5t78 -24.5h47v-53h-448v51h47q23 0 39 14.5t16 36.5v9l-50.5 382l-47.5 383l-350 -692q0 -2 -9.5 -22.5t-21.5 -51t-24.5 -67.5t-18.5 -72h-43l-461 887l-84 -745h2
q-2 -2 -2 -5q0 -23 17.5 -39t40.5 -16h47v-51h-402z" />
    <glyph glyph-name="afii10079" unicode="&#x43d;" horiz-adv-x="1527" 
d="M100 -2v53h39q41 0 70 26.5t31 65.5v938q-2 37 -31 63.5t-70 26.5h-39v56h441v-56h-41q-39 0 -66.5 -25.5t-30.5 -60.5v-432h701v430q-2 37 -31 64t-69 27h-39v55h440v-55h-39q-39 0 -66.5 -27t-31.5 -62v-940q2 -39 30.5 -65.5t69.5 -26.5h39v-53l-444 -2v53h38
q41 0 70 26.5t31 65.5v416h-701v-416q2 -39 31 -65.5t70 -26.5h39v-53h-441z" />
    <glyph glyph-name="afii10080" unicode="&#x43e;" horiz-adv-x="1521" 
d="M66 614q0 143 54 261t148 203t220.5 132t269.5 47t268 -47t219 -132t148.5 -202.5t54.5 -261.5q0 -143 -54.5 -260.5t-148.5 -202.5t-219 -132.5t-268 -47.5t-269.5 47.5t-220.5 132.5t-148 202.5t-54 260.5zM250 614q0 -123 39 -224t107.5 -173t162 -111.5t199.5 -39.5
t198.5 39.5t161 111.5t107.5 173.5t39 223.5q0 123 -39 224.5t-107.5 173t-161 111.5t-198.5 40t-199.5 -40t-162 -111.5t-107.5 -173t-39 -224.5z" />
    <glyph glyph-name="afii10081" unicode="&#x43f;" horiz-adv-x="1439" 
d="M109 0v53h38q37 0 64 26.5t29 63.5v940q-2 37 -29 64t-64 27h-38v55h1216v-55h-39q-37 0 -63.5 -26t-28.5 -61v-944q2 -37 28.5 -63.5t63.5 -26.5h37l6 -53h-428v53h39q37 0 63.5 26.5t28.5 63.5v899q-2 39 -28.5 67t-61.5 28h-450q-35 0 -60.5 -27t-28.5 -63v-904
q2 -37 29 -63.5t64 -26.5h39v-53h-426z" />
    <glyph glyph-name="afii10082" unicode="&#x440;" horiz-adv-x="1132" 
d="M82 1174v55l489 -2q104 -2 191.5 -27.5t150 -72t96 -112t33.5 -147.5q0 -88 -30.5 -157.5t-82.5 -111.5t-121 -67.5t-146 -25.5q-53 0 -110.5 18.5t-117.5 46.5v31q18 -4 39 -8q16 -4 37.5 -6t44.5 -2q37 0 79 7t83 28.5t76.5 61.5t58.5 103q6 20 9 49t3 54
q0 113 -78.5 178.5t-218.5 65.5h-176v-990q2 -39 30 -65.5t68 -26.5h46v-53h-449v53h45q41 0 67.5 26.5t28.5 65.5v942q-2 37 -30.5 63t-69.5 26h-45z" />
    <glyph glyph-name="afii10083" unicode="&#x441;" horiz-adv-x="1443" 
d="M100 614q0 150 47.5 270t135.5 202.5t213 126.5t280 44q127 0 255 -34.5t226 -94.5l50 -307h-52q-47 184 -174 263t-307 79q-115 0 -206 -38t-155.5 -108.5t-99 -173t-34.5 -229.5q0 -123 35.5 -223t101 -170.5t157 -110.5t203.5 -42h6q106 0 199.5 27.5t164.5 85
t115 145.5t52 211h51l-23 -297q-82 -125 -233.5 -197t-331.5 -72q-156 0 -280.5 45t-212.5 128t-135.5 202t-47.5 268z" />
    <glyph glyph-name="afii10084" unicode="&#x442;" horiz-adv-x="1183" 
d="M27 1004v268q16 -6 44.5 -13.5t62.5 -13.5t69 -10t63 -4h647q29 0 64 4t68.5 10t62.5 13.5t45 13.5v-268h-55v47q0 35 -23.5 59.5t-60.5 26.5h-342v-994q2 -37 30.5 -63.5t69.5 -26.5h41v-53h-444v53h41q41 0 68.5 26.5t31.5 65.5v992h-344q-37 -2 -59.5 -27t-22.5 -59
v-47h-57z" />
    <glyph glyph-name="afii10085" unicode="&#x443;" horiz-adv-x="1261" 
d="M43 1192v35h432v-33h-43q-66 0 -65 -45q0 -10 2 -14q6 -27 86 -174.5l233 -434.5l217 555q-4 51 -33 78q-37 31 -77 31h-31v37h455v-37h-43q-43 0 -76 -31q-31 -27 -51 -72l-281 -739q-16 -43 -38.5 -93t-54.5 -98t-74 -86t-93 -55q-29 -8 -102.5 -12t-172.5 -4h-63v59
q74 2 123 6.5t86 13.5t70.5 28.5t76.5 54.5q39 45 99 182l8 31q-205 379 -317.5 568.5t-135.5 205.5q-53 43 -94 43h-43z" />
    <glyph glyph-name="afii10086" unicode="&#x444;" horiz-adv-x="1556" 
d="M63 608q0 150 107 242q102 90 311 90h215v143q-4 37 -37.5 64t-80.5 27h-43v55h485v-55h-43q-45 0 -79 -27t-38 -62v-145h217q211 0 314 -90q104 -92 104 -242q0 -76 -33 -135q-31 -57 -90 -104q-51 -41 -127 -66q-72 -25 -149 -24q-49 0 -101.5 11t-101.5 34v20l33 -6v2
q16 -4 34.5 -5t34.5 -1q35 0 84 6q47 6 92 27q37 14 82 57q35 35 60 98q2 6 4 15.5t4 23.5q2 10 3 22.5t1 24.5v15q-4 121 -68 188q-66 72 -184 72h-213v-740q2 -37 36 -63.5t81 -26.5h43v-53h-485v53h43q47 0 80.5 26.5t37.5 63.5v740h-211q-119 0 -184 -72
q-63 -68 -68 -188v-15q0 -12 1.5 -24.5t3.5 -22.5l8 -39q25 -66 61 -98q23 -20 42.5 -34.5t39.5 -22.5q43 -20 90 -27q49 -6 84 -6q16 0 34.5 1t35.5 5v-2l33 6v-20q-96 -45 -203 -45q-80 0 -150 24q-76 25 -127 66q-61 49 -88 104q-35 63 -35 135z" />
    <glyph glyph-name="afii10087" unicode="&#x445;" horiz-adv-x="1282" 
d="M-20 6v53h43q53 0 99 28t75 65v-2l362 464l-330 473q-29 35 -76 63t-102 28h-43v53h502v-53h-41q-23 0 -41 -16.5t-18 -39.5q0 -14 6 -22l239 -342l230 340q6 8 6 22q0 23 -17.5 39.5t-39.5 16.5h-43v53h477v-53h-43q-55 0 -102.5 -28t-75.5 -67l-314 -436l350 -502
q29 -35 74 -62.5t100 -27.5l48 15v-60h-506v53h41q23 0 41 15.5t18 38.5q0 12 -6 22l-262 375l-277 -375q-8 -10 -8 -24q0 -23 19.5 -38.5t42.5 -15.5h41v-53h-469z" />
    <glyph glyph-name="afii10088" unicode="&#x446;" horiz-adv-x="1460" 
d="M72 0v55h39q37 0 63.5 27t28.5 63v938q-2 37 -29 64t-63 27h-39v53h426v-53h-39q-37 0 -63.5 -27t-28.5 -64v-901q2 -37 27.5 -63.5t60.5 -26.5h450q35 0 61.5 27.5t28.5 66.5v897q-2 37 -28.5 64t-63.5 27h-39v53h428l-6 -53h-37q-37 0 -63.5 -27t-28.5 -64v-942
q2 -31 21 -53h139l94 -350h-55q-23 57 -51.5 105t-52 83t-78 54.5t-130.5 19.5h-972z" />
    <glyph glyph-name="afii10089" unicode="&#x447;" horiz-adv-x="1343" 
d="M33 1182v49h473v-49h-43q-41 0 -78 -33q-25 -23 -35 -62v-6q-4 -59 -6 -95t-2 -77v-14q2 -121 68 -188q68 -72 182 -72h373v440q-2 43 -35 72q-33 33 -78 33h-43v49h473v-49h-43q-45 0 -78 -33q-29 -27 -35 -72v-925q6 -49 35 -72q33 -31 78 -31h43v-47h-473v47h43
q43 0 78 31q31 25 35 72v428h-375q-209 0 -318 88q-88 74 -88 309v47t4 53v4q-6 43 -34 70q-33 33 -78 33h-43z" />
    <glyph glyph-name="afii10090" unicode="&#x448;" horiz-adv-x="1863" 
d="M78 0v55h39q20 0 39 8h2q12 8 22 19l4 4q8 8 13 16l8 21l2 6q2 8 2 16v945v4q-4 35 -29 59q-8 6 -14 12q-8 4 -19 9q-6 2 -10 4h-4q-4 2 -8 2h-8h-39v53h426v-53h-39q-37 0 -64 -27l-8 -8q-18 -25 -20 -55v-908v-6q2 -8 2 -16q2 -4 2 -8q6 -14 18 -29l4 -4q20 -20 45 -27
h17h301h8h6q6 2 10 4q20 6 37 23q4 6 8 10t7 8q2 6 4 10q2 6 4 11l2 4v928q-2 37 -29 63q-25 23 -55 27h-4h-43v53h432l-6 -53h-37h-2h-8q-4 -2 -11 -2q-12 -4 -22 -9q-4 -4 -10 -8q-2 -2 -6 -4l-5 -4l-8 -8q-2 -4 -4 -6q-10 -14 -14 -31q0 -2 -2 -4v-14v-926q6 -27 24 -45
q27 -27 62 -27h305q35 0 61.5 27.5t28.5 66.5v904q-2 37 -28.5 63.5t-63.5 26.5h-39v53h428l-6 -53h-37q-37 0 -63.5 -27t-28.5 -63v-949q2 -35 28.5 -60.5t63.5 -25.5h39v-55h-1710z" />
    <glyph glyph-name="afii10091" unicode="&#x449;" horiz-adv-x="1959" 
d="M78 0v55h39q20 0 39 8h2q12 8 22 19l4 4q8 8 13 16l8 21l2 6q2 8 2 16v949q-4 35 -29 59q-8 6 -14 12q-8 4 -19 9q-6 2 -10 4h-4q-4 2 -8 2h-47v53h426v-53h-39q-37 0 -64 -27l-8 -8q-18 -25 -20 -55v-914q2 -8 2 -16q2 -4 2 -8q6 -14 18 -29l4 -4q20 -20 45 -27h332
q6 2 10 4q20 6 37 23q4 6 8 10t7 8q2 6 4 10q2 6 4 11l2 4v928q-2 37 -29 63q-25 23 -55 27h-47v53h432l-6 -53h-47q-4 -2 -11 -2q-12 -4 -22 -9q-4 -4 -10 -8q-2 -2 -6 -4l-13 -12q-2 -4 -4 -6q-10 -14 -14 -31q0 -2 -2 -4v-940q6 -27 24 -45q27 -27 62 -27h305
q35 0 61.5 27.5t28.5 66.5v904q-2 37 -28.5 63.5t-63.5 26.5h-39v53h428l-6 -53h-37q-37 0 -63.5 -27t-28.5 -63v-949q2 -29 18 -51h135l95 -350h-56q-23 57 -51.5 105.5t-52 83t-78.5 55.5q-35 12 -80 16h-1509z" />
    <glyph glyph-name="afii10092" unicode="&#x44a;" horiz-adv-x="1259" 
d="M57 1001v269q16 -6 45 -13.5t63 -13.5t91 -10t236 -4h206v-53h-45q-41 0 -68.5 -27t-29.5 -66v-989h176q139 0 218 65.5t79 178.5q0 25 -3 53.5t-9 48.5q-23 63 -58.5 103.5t-76.5 62t-83 28.5t-79 7q-23 0 -44.5 -2t-37.5 -6l-39 -8v30q59 29 116.5 47.5t110.5 18.5
q78 0 146.5 -25.5t121 -67.5t83 -112t30.5 -158q0 -82 -33.5 -147.5t-96 -111.5t-149.5 -71.5t-192 -27.5l-489 -2v55h45q41 0 69.5 25.5t30.5 62.5l-2 994h-192q-37 -2 -59.5 -27t-22.5 -59v-48h-58z" />
    <glyph glyph-name="afii10093" unicode="&#x44b;" horiz-adv-x="1574" 
d="M82 -2v55h45q41 0 69.5 25.5t30.5 62.5v942q-2 39 -28.5 66t-67.5 27h-45v53h449v-53h-46q-41 0 -68.5 -27t-29.5 -66v-989h176q139 0 218 65.5t79 178.5q0 25 -3 53.5t-9 48.5q-23 63 -58.5 103.5t-76.5 62t-83 28.5t-79 7q-23 0 -44.5 -2t-37.5 -6l-39 -8v30
q59 29 116.5 47.5t111.5 18.5q78 0 146.5 -25.5t120.5 -67.5t82.5 -112t30.5 -158q0 -82 -33.5 -147.5t-96 -111.5t-149.5 -71.5t-192 -27.5zM1026 -2v53h43q47 0 81 26.5t38 63.5v940q-4 37 -38 63.5t-81 26.5h-43v56h485v-56h-43q-45 0 -78.5 -26.5t-37.5 -61.5v-942
q2 -37 35.5 -63.5t80.5 -26.5h43v-53h-485z" />
    <glyph glyph-name="afii10094" unicode="&#x44c;" horiz-adv-x="1132" 
d="M82 -2v55h45q41 0 69.5 25.5t30.5 62.5v942q-2 39 -28.5 66t-67.5 27h-45v53h449v-53h-46q-41 0 -68.5 -27t-29.5 -66v-989h176q139 0 218 65.5t79 178.5q0 25 -3 53.5t-9 48.5q-23 63 -58.5 103.5t-76.5 62t-83 28.5t-79 7q-23 0 -44.5 -2t-37.5 -6l-39 -8v30
q59 29 116.5 47.5t111.5 18.5q78 0 146.5 -25.5t120.5 -67.5t82.5 -112t30.5 -158q0 -82 -33.5 -147.5t-96 -111.5t-149.5 -71.5t-192 -27.5z" />
    <glyph glyph-name="afii10095" unicode="&#x44d;" horiz-adv-x="1443" 
d="M100 537h52q8 -123 52 -211t114.5 -145.5t163.5 -85t200 -27.5h6q113 2 204 42t156.5 110.5t102.5 170.5q29 82 35 180h-543q-31 -2 -54.5 -25.5t-23.5 -56.5v-47h-53v349h53v-46q0 -35 23.5 -58t58.5 -25h539q-6 98 -35 182q-35 102 -99.5 172.5t-155.5 108.5t-206 38
q-180 0 -307 -78.5t-174 -263.5h-51l49 307q98 59 226 94t255 35q156 0 281 -44t213 -126.5t135 -202.5t47 -270t-47 -268.5t-135 -201.5t-213 -128t-281 -45q-180 0 -331.5 72t-233.5 197z" />
    <glyph glyph-name="afii10096" unicode="&#x44e;" horiz-adv-x="2035" 
d="M53 -2v53h43q47 0 81 26.5t38 63.5v940q-4 37 -38 63.5t-81 26.5h-43v56h486v-56h-43q-45 0 -79 -26.5t-38 -61.5v-424h213q8 117 53 215q55 119 149.5 204t220.5 132t269 47t268 -47t219.5 -132t148.5 -202.5t54 -261.5q0 -143 -54 -260.5t-148.5 -202.5t-219.5 -132.5
t-268 -47.5t-269 47.5t-220.5 132.5t-149.5 201q-45 100 -53 217h-213v-428q2 -37 36 -63.5t81 -26.5h43v-53h-486zM776 614q0 -123 39 -224t107.5 -173t162 -111.5t199.5 -39.5t198.5 39.5t161 111.5t107.5 173.5t39 223.5q0 123 -39 224.5t-107.5 173t-160.5 111.5
t-199 40q-106 0 -199.5 -40t-162 -111.5t-107.5 -173t-39 -224.5z" />
    <glyph glyph-name="afii10097" unicode="&#x44f;" horiz-adv-x="1284" 
d="M39 -2v53q43 0 77 10.5t62.5 30t55 46t55.5 59.5l61.5 71.5t55.5 69.5q29 37 55 76v-2q25 35 57.5 72.5t63.5 62.5q-61 14 -112.5 46t-89.5 77t-58.5 100t-20.5 117q0 158 114.5 247t307.5 93l514 2v-55h-43q-41 0 -67.5 -25t-28.5 -62v-944q2 -37 28.5 -62.5t67.5 -25.5
h45v-53h-442v53h45q41 0 67.5 27t28.5 63v435q-111 0 -158 -39t-84 -86l-90 -127q-35 -47 -65.5 -93.5t-40.5 -56.5l-54.5 -60.5t-74.5 -58t-106.5 -44t-147.5 -17.5h-78zM479 885q0 -51 15 -90q20 -59 50.5 -91t67.5 -47.5t78 -18.5t73 -4t54 -1h121v500h-131q-39 0 -80 -3
q-113 -6 -178.5 -65t-67.5 -164q-2 -4 -2 -16z" />
    <glyph glyph-name="uni0450" unicode="&#x450;" horiz-adv-x="1118" 
d="M70 -10v53h45q41 0 67.5 26.5t28.5 65.5v946q0 37 -27.5 62.5t-68.5 25.5h-45v54h600q29 0 63.5 4t68.5 10t61.5 13t43.5 14v-269h-55v47q0 35 -23.5 59.5t-60.5 26.5h-395v-471h323q33 2 49.5 21.5t16.5 46.5v43h55v-313h-55v43q0 27 -15.5 45t-46.5 22h-325v-471h293
q68 2 115.5 19.5t82.5 46t60.5 69.5t46.5 88h57l-123 -327h-837zM330 1534q16 33 38.5 60.5t47.5 50.5q129 -127 258 -271l-12 -12q-166 76 -332 172z" />
    <glyph glyph-name="afii10071" unicode="&#x451;" horiz-adv-x="1118" 
d="M70 -10v53h45q41 0 67.5 26.5t28.5 65.5v946q0 37 -27.5 62.5t-68.5 25.5h-45v54h600q29 0 63.5 4t68.5 10t61.5 13t43.5 14v-269h-55v47q0 35 -23.5 59.5t-60.5 26.5h-395v-471h323q33 2 49.5 21.5t16.5 46.5v43h55v-313h-55v43q0 27 -15.5 45t-46.5 22h-325v-471h293
q68 2 115.5 19.5t82.5 46t60.5 69.5t46.5 88h57l-123 -327h-837zM256 1438q0 35 23.5 58.5t58.5 23.5t58.5 -22.5t23.5 -57.5t-22.5 -57.5t-57.5 -22.5l-4 -4q-35 0 -57.5 23.5t-22.5 58.5zM637 1434q0 35 23.5 58.5t58.5 23.5t58.5 -23t23.5 -57q0 -35 -22.5 -57.5
t-57.5 -22.5l-4 -4q-35 0 -57.5 23.5t-22.5 58.5z" />
    <glyph glyph-name="afii10099" unicode="&#x452;" horiz-adv-x="1499" 
d="M33 1004v268q16 -6 44.5 -13.5t62.5 -13.5t69 -10t63 -4h648q29 0 63.5 4t68 10t62.5 13.5t45 13.5v-268h-55v47q0 35 -23.5 59.5t-60.5 26.5h-342v-369h340q203 0 316.5 -107.5t113.5 -295.5q-10 -236 -131 -408q-109 -154 -252 -230.5t-262 -84.5v30q49 18 168 102.5
t214 249t86 328.5t-72.5 243t-182.5 79h-338v-674h-303v53h41q41 0 68.5 26.5t31.5 65.5v992h-344q-37 -2 -59.5 -27t-22.5 -59v-47h-57z" />
    <glyph glyph-name="afii10100" unicode="&#x453;" horiz-adv-x="1097" 
d="M68 -4v55h41q41 0 70.5 26.5t31.5 63.5v940q-2 39 -28.5 66t-67.5 27h-45v53h837l121 -316l-59 -8q-20 49 -46 89t-62 70t-84 47t-113 19h-293v-987q2 -37 31.5 -63.5t70.5 -26.5h41v-55h-446zM494 1372l129 139.5t129 130.5q25 -25 47 -52t39 -58l-166 -89l-166 -83z
" />
    <glyph glyph-name="afii10101" unicode="&#x454;" horiz-adv-x="1443" 
d="M100 614q0 150 47.5 270t135.5 202.5t213 126.5t280 44q127 0 255 -34.5t226 -94.5l50 -307h-52q-47 184 -174 263t-307 79q-115 0 -206 -38t-155.5 -108.5t-99.5 -172.5q-29 -84 -34 -182h538q35 2 58.5 25.5t23.5 57.5v46h53v-349h-53v47q0 33 -23.5 56.5t-54.5 25.5
h-542q6 -98 34 -180q37 -100 102.5 -170.5t157 -110.5t203.5 -42h6q106 0 199.5 27.5t164.5 85t115 145.5t52 211h51l-23 -297q-82 -125 -233.5 -197t-331.5 -72q-156 0 -280.5 45t-212.5 128t-135.5 202t-47.5 268z" />
    <glyph glyph-name="afii10102" unicode="&#x455;" horiz-adv-x="946" 
d="M102 150q0 43 8.5 96t24.5 100h55q-2 -18 -3 -30.5t-1 -20.5q0 -109 70 -169t180 -60h15q117 4 183 57t66 145q0 41 -15 77t-52 67h2l-399 307q-59 51 -80 112.5t-23 116.5q0 63 26.5 120.5t74 98.5t111 65.5t136.5 24.5q68 0 116 -5t83 -13h80l6 -250h-57
q0 82 -51.5 128t-159.5 46q-47 0 -88 -13t-72 -36.5t-48.5 -54.5t-17.5 -68q0 -35 14.5 -71.5t57.5 -71.5l399 -311q49 -41 72 -104.5t25 -125.5q0 -70 -30 -131t-80 -107t-117.5 -73t-143.5 -27q-45 0 -96 6.5t-99.5 18.5t-91.5 31.5t-71 46.5q-4 16 -6.5 35.5t-2.5 42.5z
" />
    <glyph glyph-name="afii10103" unicode="&#x456;" horiz-adv-x="688" 
d="M90 0v53h43q47 0 81 26.5t38 63.5v940q-4 37 -38 64t-81 27h-43v55h485v-55h-43q-45 0 -78.5 -27t-37.5 -62v-942q2 -37 35.5 -63.5t80.5 -26.5h43v-53h-485z" />
    <glyph glyph-name="afii10104" unicode="&#x457;" horiz-adv-x="688" 
d="M72 1438q0 35 23.5 58.5t58.5 23.5t58.5 -22.5t23.5 -57.5t-23 -57.5t-57 -22.5l-4 -4q-35 0 -57.5 23.5t-22.5 58.5zM90 0v53h43q47 0 81 26.5t38 63.5v940q-4 37 -38 64t-81 27h-43v55h485v-55h-43q-45 0 -78.5 -27t-37.5 -62v-942q2 -37 35.5 -63.5t80.5 -26.5h43v-53
h-485zM453 1434q0 35 23.5 58.5t58.5 23.5t58 -23t23 -57q0 -35 -22.5 -57.5t-56.5 -22.5l-5 -4q-35 0 -57 23.5t-22 58.5z" />
    <glyph glyph-name="afii10105" unicode="&#x458;" horiz-adv-x="632" 
d="M10 -315q47 14 90 46.5t76 77t52.5 95.5t19.5 104v1082q-4 35 -37 59.5t-76 24.5h-43v55h477v-55h-43q-47 0 -79.5 -27t-34.5 -66v-1073q0 -76 -33 -143.5t-88 -118.5t-128 -81t-153 -30v50z" />
    <glyph glyph-name="afii10106" unicode="&#x459;" horiz-adv-x="1970" 
d="M33 2v53q96 18 139 52t73.5 85.5t49.5 110.5q12 39 16 80v717q-2 37 -28.5 63.5t-63.5 26.5h-39v55h1217v-55h-39q-37 0 -63.5 -25.5t-28.5 -60.5v-961q2 -29 16 -51h160q139 0 218 65.5t79 178.5q0 25 -3 53.5t-10 48.5q-23 63 -58.5 103.5t-76.5 62t-83 28.5t-78 7
q-23 0 -44.5 -2t-37.5 -6l-39 -8v30q59 29 116.5 47.5t110.5 18.5q78 0 146.5 -25.5t120.5 -67.5t83 -112t31 -158q0 -82 -34 -147.5t-96.5 -111.5t-150.5 -72q-68 -18 -235 -25h-2q-49 -2 -107 -2l-2 2h-317v53h39q37 0 63.5 26.5t28.5 63.5v916q-2 39 -28.5 66.5
t-61.5 27.5h-451q-35 0 -60.5 -26.5t-27.5 -63.5l2 -643q0 -25 -2 -49v-37l-8 -8q-6 -37 -21 -72q-31 -76 -84 -132t-125.5 -88t-203.5 -32z" />
    <glyph glyph-name="afii10107" unicode="&#x45a;" horiz-adv-x="1974" 
d="M100 -2v53h39q41 0 70 26.5t31 65.5v938q-2 37 -31 63.5t-70 26.5h-39v56h441v-56h-41q-39 0 -66.5 -25.5t-30.5 -60.5v-432h701v430q-2 37 -31 64t-69 27h-39v55h440v-55h-39q-39 0 -66.5 -27t-31.5 -62v-940q2 -31 18 -53h156q139 0 218 65.5t79 157.5q0 25 -3 53.5
t-10 49.5q-23 63 -58.5 103t-76.5 61.5t-83 28.5t-78 7q-23 0 -44.5 -2t-37.5 -6l-39 -8v31q59 29 116.5 47t110.5 18q78 0 146.5 -25.5t120.5 -67.5t83 -111.5t31 -157.5q0 -61 -34 -127t-96.5 -112t-150.5 -72q-68 -18 -229 -25h-8q-49 -2 -107 -2l-2 2l-327 -2v53h38
q41 0 70 26.5t31 65.5v416h-701v-416q2 -39 31 -65.5t70 -26.5h39v-53h-441z" />
    <glyph glyph-name="afii10108" unicode="&#x45b;" horiz-adv-x="1503" 
d="M37 1004v268q16 -6 45 -13.5t62.5 -13.5t68.5 -10t63 -4h648q29 0 63.5 4t68.5 10t62.5 13.5t44.5 13.5v-268h-55v47q0 35 -23.5 59.5t-60.5 26.5h-342v-369h264q203 0 301.5 -107.5t98.5 -295.5l-3 -203h3q4 -45 34.5 -77t77.5 -32h2v-53h-379v53q47 0 78 32t35 77h2
l-2 221q-4 133 -67.5 212t-182.5 79l-262 -2v-672h-303v53h41q41 0 68.5 26.5t31.5 65.5v992h-344q-37 -2 -59.5 -27t-22.5 -59v-47h-57z" />
    <glyph glyph-name="afii10109" unicode="&#x45c;" horiz-adv-x="1277" 
d="M41 -2v53h41q41 0 69.5 26.5t30.5 65.5v938q-2 37 -30.5 63.5t-69.5 26.5h-41v56h442v-56h-41q-41 0 -69.5 -25.5t-30.5 -60.5v-942q2 -39 30.5 -65.5t69.5 -26.5h41v-53h-442zM395 608l436 516q10 10 11 21q0 29 -39 29h-35v55h438v-55h-24q-53 0 -100.5 -17.5
t-80.5 -48.5l-423 -453l481 -528q35 -37 71.5 -54.5t108.5 -19.5v-53h-94q-23 0 -59.5 3t-78.5 14.5t-86 35t-81 66.5zM494 1372l129 139.5t129 130.5q25 -25 47 -52t39 -58l-166 -89l-166 -83z" />
    <glyph glyph-name="uni045D" unicode="&#x45d;" horiz-adv-x="1583" 
d="M59 1171v54l412 4v-53h-51q-37 0 -63.5 -25t-30.5 -59v-787l1011 952h49l-12 -83q-4 -37 -8 -85.5t-4 -97.5v-852q2 -37 29.5 -62.5t64.5 -25.5h51v-53h-409v53h51q37 0 63.5 25.5t30.5 62.5v791l-1014 -961h-45q6 43 11 88q4 39 7 87.5t3 95.5v847q-4 35 -31 59.5
t-65 24.5h-50zM743 1372l129.5 139.5l128.5 130.5q25 -25 47.5 -52t38.5 -58l-165.5 -89l-165.5 -83z" />
    <glyph glyph-name="afii10110" unicode="&#x45e;" horiz-adv-x="1224" 
d="M25 1192v35h432v-33h-43q-66 0 -66 -45q0 -10 2 -14q6 -27 86 -174.5l234 -434.5l217 555q-4 51 -33 78q-37 31 -78 31h-31v37h455v-37h-43q-43 0 -76 -31q-31 -27 -51 -72l-280 -739q-16 -43 -39 -93t-54.5 -98t-73.5 -86t-94 -55q-29 -8 -102.5 -12t-171.5 -4h-63v59
q74 2 123 6.5t85.5 13.5t70.5 28.5t77 54.5q39 45 98 182l8 31q-205 379 -317.5 568.5t-134.5 205.5q-53 43 -94 43h-43zM408 1573h20q16 -41 68.5 -76t124.5 -35t124 35t68 76h16q0 -43 -16 -81t-46 -67.5t-67.5 -46t-81.5 -16.5q-43 0 -80.5 16.5t-67.5 46t-46 67.5
t-16 81z" />
    <glyph glyph-name="afii10193" unicode="&#x45f;" horiz-adv-x="1439" 
d="M109 0v55h38q37 0 64 27t29 63v940q-2 37 -29 64t-64 27h-38v53h426v-53h-39q-37 0 -63.5 -27t-29.5 -64v-903q2 -37 28 -63.5t61 -26.5h450q35 0 61.5 27.5t28.5 66.5v899q-2 37 -28.5 64t-63.5 27h-39v53h428l-6 -53h-37q-37 0 -63.5 -27t-28.5 -64v-944
q2 -35 28.5 -60.5t63.5 -25.5h39v-55h-557q4 -96 35 -128t78 -32v-53h-324v53q49 0 80 32t35 128h-563z" />
    <glyph glyph-name="uni2000" unicode="&#x2000;" horiz-adv-x="924" 
 />
    <glyph glyph-name="uni2001" unicode="&#x2001;" horiz-adv-x="1849" 
 />
    <glyph glyph-name="uni2002" unicode="&#x2002;" horiz-adv-x="924" 
 />
    <glyph glyph-name="uni2003" unicode="&#x2003;" horiz-adv-x="1849" 
 />
    <glyph glyph-name="uni2004" unicode="&#x2004;" horiz-adv-x="616" 
 />
    <glyph glyph-name="uni2005" unicode="&#x2005;" horiz-adv-x="462" 
 />
    <glyph glyph-name="uni2006" unicode="&#x2006;" horiz-adv-x="308" 
 />
    <glyph glyph-name="uni2007" unicode="&#x2007;" horiz-adv-x="308" 
 />
    <glyph glyph-name="uni2008" unicode="&#x2008;" horiz-adv-x="231" 
 />
    <glyph glyph-name="uni2009" unicode="&#x2009;" horiz-adv-x="369" 
 />
    <glyph glyph-name="uni200A" unicode="&#x200a;" horiz-adv-x="102" 
 />
    <glyph glyph-name="uni2010" unicode="&#x2010;" horiz-adv-x="778" 
d="M70 596l12 43h614l13 -45l-13 -45h-614z" />
    <glyph glyph-name="uni2011" unicode="&#x2011;" horiz-adv-x="778" 
d="M70 596l12 43h614l13 -45l-13 -45h-614z" />
    <glyph glyph-name="figuredash" unicode="&#x2012;" horiz-adv-x="778" 
d="M70 596l12 43h614l13 -45l-13 -45h-614z" />
    <glyph glyph-name="endash" unicode="&#x2013;" horiz-adv-x="1024" 
d="M0 555v98h1024v-98h-1024z" />
    <glyph glyph-name="emdash" unicode="&#x2014;" horiz-adv-x="1638" 
d="M0 555v102h1638v-102h-1638z" />
    <glyph glyph-name="quoteleft" unicode="&#x2018;" horiz-adv-x="409" 
d="M98 1403.5q6 58.5 35 102.5t75 71t99 29l6 -15q-49 -16 -71.5 -42.5t-27.5 -56.5t4 -57.5t24 -43.5l22 -26.5t21.5 -30t11.5 -34t-6 -38.5q-10 -25 -34 -37.5t-49.5 -10t-50 18.5t-38.5 49q-27 63 -21 121.5z" />
    <glyph glyph-name="quoteright" unicode="&#x2019;" horiz-adv-x="409" 
d="M102 1241q47 14 69 41t26 54.5t-4.5 53t-20.5 42.5l-41.5 53t-5.5 69q10 23 31.5 34t46 9t48 -17t36.5 -46q25 -61 19.5 -116.5t-33 -97.5t-70.5 -67.5t-94 -27.5z" />
    <glyph glyph-name="quotesinglbase" unicode="&#x201a;" horiz-adv-x="409" 
d="M96 -184q49 16 71.5 42.5t27 56.5t-4 57.5t-22.5 43.5l-22.5 26.5t-21.5 30t-12 34t7 38.5q10 25 33.5 36.5t49 10t50 -17.5t39.5 -49q27 -63 20.5 -121.5t-35 -102.5t-74.5 -71t-100 -29z" />
    <glyph glyph-name="quotedblleft" unicode="&#x201c;" horiz-adv-x="696" 
d="M98 1403.5q6 58.5 35 102.5t75 71t99 29l6 -15q-49 -16 -71.5 -42.5t-27.5 -56.5t4 -57.5t24 -43.5l22 -26.5t21.5 -30t11.5 -34t-6 -38.5q-10 -25 -34 -37.5t-49.5 -10t-50 18.5t-38.5 49q-27 63 -21 121.5zM385 1407.5q6 58.5 35 102.5t75 71t99 29l6 -15
q-49 -16 -71.5 -42.5t-27.5 -56.5t4 -57.5t23 -43.5l22.5 -26.5t22 -30t11.5 -34t-6 -38.5q-10 -25 -34 -37t-49.5 -10t-50 18t-38.5 49q-27 63 -21 121.5z" />
    <glyph glyph-name="quotedblright" unicode="&#x201d;" horiz-adv-x="696" 
d="M102 1241q47 14 69 41t26 54.5t-4.5 53t-20.5 42.5l-41.5 53t-5.5 69q10 23 31.5 34t46 9t48 -17t36.5 -46q25 -61 19.5 -116.5t-33 -97.5t-70.5 -67.5t-94 -27.5zM387 1241q47 14 68.5 41t25.5 54.5t-4 53t-20 42.5l-42 53t-5 69q10 23 31.5 34t46 9t48 -17t35.5 -46
q25 -61 20 -116.5t-33 -97.5t-71 -67.5t-94 -27.5z" />
    <glyph glyph-name="quotedblbase" unicode="&#x201e;" horiz-adv-x="696" 
d="M94 -186q51 16 76 44.5t30 59.5t-4.5 58.5t-23.5 46.5q-10 12 -23.5 26t-22.5 30.5t-13 34t6 40.5q10 25 33.5 37t51 11t53.5 -18.5t40 -52.5q27 -68 20.5 -128t-36 -107.5t-78.5 -75t-105 -29.5zM367 -182q51 16 75.5 44.5t29.5 59.5t-4 58.5t-24 46.5l-23 26.5
t-22.5 30.5t-13.5 33.5t6 40.5q10 25 34 37t51.5 11t53 -18.5t39.5 -52.5q27 -68 21 -128t-36 -107t-79 -75t-104 -30z" />
    <glyph glyph-name="bullet" unicode="&#x2022;" horiz-adv-x="686" 
d="M158 663.5v16.5q0 20 4 31q14 43 25.5 68.5t27.5 42t42 27.5t69 25q10 4 17 4.5t15 0.5h15.5t17.5 -5q43 -14 68.5 -25t42 -27.5t28 -42t25.5 -68.5q4 -20 4 -31q0 -17 -6 -37q-14 -41 -25.5 -65.5t-28 -40t-40 -26.5t-62.5 -24v-2q-25 -6 -39 -6q-12 0 -32 4
q-43 14 -69 25.5t-42 28t-27.5 42t-25.5 68.5q-4 10 -4 16.5z" />
    <glyph glyph-name="ellipsis" unicode="&#x2026;" horiz-adv-x="1167" 
d="M92 84q0 39 26.5 65.5t65.5 26.5t65.5 -26.5t26.5 -65.5t-26.5 -65.5t-65.5 -26.5t-65.5 26.5t-26.5 65.5zM502 84q0 39 26.5 65.5t65.5 26.5t65.5 -26.5t26.5 -65.5t-26.5 -65.5t-65.5 -26.5t-65.5 26.5t-26.5 65.5zM891 84q0 39 26.5 65.5t65.5 26.5t65.5 -26.5
t26.5 -65.5t-26.5 -65.5t-65.5 -26.5t-65.5 26.5t-26.5 65.5z" />
    <glyph glyph-name="uni202F" unicode="&#x202f;" horiz-adv-x="369" 
 />
    <glyph glyph-name="guilsinglleft" unicode="&#x2039;" horiz-adv-x="579" 
d="M82 598l358 406l37 -11l-241 -395l243 -403l-39 -11z" />
    <glyph glyph-name="guilsinglright" unicode="&#x203a;" horiz-adv-x="579" 
d="M104 195l244 403l-242 395l35 11l359 -406l-359 -414z" />
    <glyph glyph-name="uni205F" unicode="&#x205f;" horiz-adv-x="462" 
 />
    <glyph glyph-name="Euro" unicode="&#x20ac;" horiz-adv-x="1501" 
d="M10 571l33 95h188q-2 14 -2 27.5v27.5v24.5t2 24.5h-219l33 94h199q25 129 91 239.5t164.5 191.5t222.5 126t263 45q156 0 277.5 -31.5t181.5 -101.5l-74 -213h-53q6 23 8 40.5t2 27.5q0 59 -36 95t-88 55.5t-111.5 25.5t-106.5 6q-104 0 -195.5 -38t-165 -105.5
t-123.5 -160.5t-71 -204h854l-35 -94h-831q-2 -12 -2 -24.5v-24.5q0 -20 1 -29.5l3 -27.5h797l-35 -95h-750q23 -109 74 -200t122.5 -157.5t163 -104t193.5 -37.5q178 0 277.5 62.5t128.5 207.5l51 10l-2 -237q-35 -35 -87.5 -60.5t-112.5 -42t-126.5 -24t-130.5 -7.5
q-139 0 -262 45.5t-220.5 124t-164 187t-92.5 237.5h-234z" />
    <glyph glyph-name="trademark" unicode="&#x2122;" horiz-adv-x="913" 
d="M23 1360v84q8 -4 28.5 -7t38.5 -3l197 -2q18 0 38.5 3t28.5 7v-84h-6v10q0 33 -33 33h-96v-332q0 -16 10.5 -26.5t26.5 -10.5h8v-6h-151v6h8q16 0 26.5 10.5t10.5 26.5v334h-97q-33 0 -32 -33v-10h-6zM360 1030v6h9q16 0 27.5 10.5t13.5 26.5l43 369h6l170 -320l147 318
h6l68 -369q6 -35 41 -35h8v-6h-145v6h8q10 0 17 7.5t5 17.5l-36 250l-109 -230l-8 -20t-7 -19.5l-6 -19.5h-6l-141 276l-16 -237q0 -10 6 -17.5t16 -7.5h8v-6h-125z" />
    <glyph glyph-name="uni25FC" unicode="&#x25fc;" horiz-adv-x="1228" 
d="M0 0v1229h1229v-1229h-1229z" />
    </font>
</defs>
</svg>
